<?xml version="1.0" encoding="UTF-8" standalone="no"?>
<!-- Created with Inkscape (http://www.inkscape.org/) -->

<svg
   xmlns:dc="http://purl.org/dc/elements/1.1/"
   xmlns:cc="http://creativecommons.org/ns#"
   xmlns:rdf="http://www.w3.org/1999/02/22-rdf-syntax-ns#"
   xmlns:svg="http://www.w3.org/2000/svg"
   xmlns="http://www.w3.org/2000/svg"
   xmlns:sodipodi="http://sodipodi.sourceforge.net/DTD/sodipodi-0.dtd"
   xmlns:inkscape="http://www.inkscape.org/namespaces/inkscape"
   width="210mm"
   height="297mm"
   viewBox="0 0 210 297"
   version="1.1"
   id="svg8311"
   inkscape:version="0.92.4 (5da689c313, 2019-01-14)"
   sodipodi:docname="desenho-1.svg">
  <defs
     id="defs8305">
    <filter
       inkscape:collect="always"
       style="color-interpolation-filters:sRGB"
       id="filter8960"
       x="-0.012017341"
       width="1.0240347"
       y="-0.027162403"
       height="1.0543248">
      <feGaussianBlur
         inkscape:collect="always"
         stdDeviation="1.0991753"
         id="feGaussianBlur8962" />
    </filter>
  </defs>
  <sodipodi:namedview
     id="base"
     pagecolor="#ffffff"
     bordercolor="#666666"
     borderopacity="1.0"
     inkscape:pageopacity="0.0"
     inkscape:pageshadow="2"
     inkscape:zoom="0.54115914"
     inkscape:cx="-729.29725"
     inkscape:cy="714.07377"
     inkscape:document-units="mm"
     inkscape:current-layer="layer1"
     showgrid="false"
     inkscape:window-width="1366"
     inkscape:window-height="705"
     inkscape:window-x="-8"
     inkscape:window-y="-8"
     inkscape:window-maximized="1" />
  <metadata
     id="metadata8308">
    <rdf:RDF>
      <cc:Work
         rdf:about="">
        <dc:format>image/svg+xml</dc:format>
        <dc:type
           rdf:resource="http://purl.org/dc/dcmitype/StillImage" />
        <dc:title></dc:title>
      </cc:Work>
    </rdf:RDF>
  </metadata>
  <g
     inkscape:label="Layer 1"
     inkscape:groupmode="layer"
     id="layer1">
    <circle
       style="opacity:0.956;fill:none;fill-opacity:0.95918364;stroke:#000000;stroke-width:1.32291663;stroke-linecap:round;stroke-miterlimit:4;stroke-dasharray:none;stroke-opacity:1"
       id="path8313"
       cx="58.609715"
       cy="158.53806"
       r="60" />
    <circle
       r="60"
       cy="169.12138"
       cx="71.838875"
       id="circle8317"
       style="opacity:0.956;fill:none;fill-opacity:0.95918364;stroke:#000000;stroke-width:1.32291663;stroke-linecap:round;stroke-miterlimit:4;stroke-dasharray:none;stroke-opacity:1" />
    <circle
       style="opacity:0.956;fill:none;fill-opacity:0.95918364;stroke:#000000;stroke-width:1.32291663;stroke-linecap:round;stroke-miterlimit:4;stroke-dasharray:none;stroke-opacity:1"
       id="circle8319"
       cx="85.861794"
       cy="176.26514"
       r="60" />
    <circle
       r="60"
       cy="180.49847"
       cx="104.64721"
       id="circle8321"
       style="opacity:0.956;fill:none;fill-opacity:0.95918364;stroke:#000000;stroke-width:1.32291663;stroke-linecap:round;stroke-miterlimit:4;stroke-dasharray:none;stroke-opacity:1" />
    <circle
       style="opacity:0.956;fill:none;fill-opacity:0.95918364;stroke:#000000;stroke-width:1.32291663;stroke-linecap:round;stroke-miterlimit:4;stroke-dasharray:none;stroke-opacity:1"
       id="circle8323"
       cx="123.43262"
       cy="177.58806"
       r="60" />
    <circle
       r="60"
       cy="166.47556"
       cx="143.80554"
       id="circle8325"
       style="opacity:0.956;fill:none;fill-opacity:0.95918364;stroke:#000000;stroke-width:1.32291663;stroke-linecap:round;stroke-miterlimit:4;stroke-dasharray:none;stroke-opacity:1" />
    <circle
       style="opacity:0.956;fill:none;fill-opacity:0.95918364;stroke:#000000;stroke-width:1.32291663;stroke-linecap:round;stroke-miterlimit:4;stroke-dasharray:none;stroke-opacity:1"
       id="circle8327"
       cx="157.82846"
       cy="147.16096"
       r="60" />
    <circle
       r="60"
       cy="123.08388"
       cx="165.50137"
       id="circle8329"
       style="opacity:0.956;fill:none;fill-opacity:0.95918364;stroke:#000000;stroke-width:1.32291663;stroke-linecap:round;stroke-miterlimit:4;stroke-dasharray:none;stroke-opacity:1" />
    <circle
       style="opacity:0.956;fill:none;fill-opacity:0.95918364;stroke:#000000;stroke-width:1.32291663;stroke-linecap:round;stroke-miterlimit:4;stroke-dasharray:none;stroke-opacity:1"
       id="circle8331"
       cx="163.3847"
       cy="105.88597"
       r="60" />
    <circle
       r="60"
       cy="87.100555"
       cx="155.97636"
       id="circle8333"
       style="opacity:0.956;fill:none;fill-opacity:0.95918364;stroke:#000000;stroke-width:1.32291663;stroke-linecap:round;stroke-miterlimit:4;stroke-dasharray:none;stroke-opacity:1" />
    <circle
       style="opacity:0.956;fill:none;fill-opacity:0.95918364;stroke:#000000;stroke-width:1.32291663;stroke-linecap:round;stroke-miterlimit:4;stroke-dasharray:none;stroke-opacity:1"
       id="circle8335"
       cx="143.80553"
       cy="72.813057"
       r="60" />
    <circle
       r="60"
       cy="140.81097"
       cx="48.290943"
       id="circle8337"
       style="opacity:0.956;fill:none;fill-opacity:0.95918364;stroke:#000000;stroke-width:1.32291663;stroke-linecap:round;stroke-miterlimit:4;stroke-dasharray:none;stroke-opacity:1" />
    <circle
       style="opacity:0.956;fill:none;fill-opacity:0.95918364;stroke:#000000;stroke-width:1.32291663;stroke-linecap:round;stroke-miterlimit:4;stroke-dasharray:none;stroke-opacity:1"
       id="circle8339"
       cx="43.793026"
       cy="120.96722"
       r="60" />
    <circle
       r="60"
       cy="106.15057"
       cx="45.11594"
       id="circle8341"
       style="opacity:0.956;fill:none;fill-opacity:0.95918364;stroke:#000000;stroke-width:1.32291663;stroke-linecap:round;stroke-miterlimit:4;stroke-dasharray:none;stroke-opacity:1" />
    <circle
       style="opacity:0.956;fill:none;fill-opacity:0.95918364;stroke:#000000;stroke-width:1.32291663;stroke-linecap:round;stroke-miterlimit:4;stroke-dasharray:none;stroke-opacity:1"
       id="circle8343"
       cx="54.111774"
       cy="90.010986"
       r="60" />
    <circle
       r="60"
       cy="75.194321"
       cx="67.605515"
       id="circle8345"
       style="opacity:0.956;fill:none;fill-opacity:0.95918364;stroke:#000000;stroke-width:1.32291663;stroke-linecap:round;stroke-miterlimit:4;stroke-dasharray:none;stroke-opacity:1" />
    <circle
       style="opacity:0.956;fill:none;fill-opacity:0.95918364;stroke:#000000;stroke-width:1.32291663;stroke-linecap:round;stroke-miterlimit:4;stroke-dasharray:none;stroke-opacity:1"
       id="circle8347"
       cx="85.597176"
       cy="64.610985"
       r="60" />
    <circle
       r="60"
       cy="61.700569"
       cx="108.08675"
       id="circle8349"
       style="opacity:0.956;fill:none;fill-opacity:0.95918364;stroke:#000000;stroke-width:1.32291663;stroke-linecap:round;stroke-miterlimit:4;stroke-dasharray:none;stroke-opacity:1" />
    <circle
       style="opacity:0.956;fill:none;fill-opacity:0.95918364;stroke:#000000;stroke-width:1.32291663;stroke-linecap:round;stroke-miterlimit:4;stroke-dasharray:none;stroke-opacity:1"
       id="circle8351"
       cx="126.07843"
       cy="61.435986"
       r="60" />
    <text
       xml:space="preserve"
       style="font-style:normal;font-variant:normal;font-weight:normal;font-stretch:normal;font-size:10.58333302px;line-height:1.25;font-family:'Wide Latin';-inkscape-font-specification:'Wide Latin';letter-spacing:2.64583325px;word-spacing:0px;fill:#000000;fill-opacity:1;stroke:none;stroke-width:0.26458332"
       x="-192.701"
       y="63.696434"
       id="text8355"><tspan
         sodipodi:role="line"
         id="tspan8353"
         x="-192.701"
         y="73.053497"
         style="stroke-width:0.26458332"></tspan></text>
    <g
       id="g8996">
      <path
         transform="matrix(0.72511363,0,0,1.3790942,29.586318,4.6606032)"
         d="m -159.86026,98.699806 q -14.72726,0 -26.5356,-6.103189 -11.80835,-6.235866 -18.57492,-17.248141 -6.6339,-11.144953 -6.6339,-25.208821 0,-14.063869 6.6339,-25.076144 6.76657,-11.144953 18.57492,-17.2481413 11.80834,-6.2358665 26.5356,-6.2358665 13.53316,0 24.1474,4.7764084 10.61424,4.7764084 17.51349,13.7985124 L -137.96839,37.8006 q -8.62407,-10.879597 -20.29973,-10.879597 -9.81818,0 -15.78869,6.368544 -5.97051,6.235867 -5.97051,16.850108 0,10.61424 5.97051,16.982785 5.97051,6.235866 15.78869,6.235866 11.67566,0 20.29973,-10.879597 l 19.76902,17.646176 q -6.89925,9.022104 -17.51349,13.798513 -10.61424,4.776408 -24.1474,4.776408 z"
         style="font-style:normal;font-variant:normal;font-weight:900;font-stretch:normal;font-size:132.67800903px;line-height:1.25;font-family:'Montserrat Black';-inkscape-font-specification:'Montserrat Black, Heavy';font-variant-ligatures:normal;font-variant-caps:normal;font-variant-numeric:normal;font-feature-settings:normal;text-align:start;letter-spacing:31.09640503px;word-spacing:0px;writing-mode:lr-tb;text-anchor:start;fill:#000000;fill-opacity:1;stroke:#000000;stroke-width:4.23333311;stroke-linecap:round;stroke-linejoin:round;stroke-miterlimit:4;stroke-dasharray:none;filter:url(#filter8960)"
         id="path8981"
         inkscape:connector-curvature="0" />
      <path
         d="m -90.130561,137.577 q -10.678939,0 -19.241329,-8.41687 -8.56239,-8.59985 -13.46893,-23.78681 -4.81034,-15.36994 -4.81034,-34.76534 0,-19.3954 4.81034,-34.582365 4.90654,-15.369938 13.46893,-23.78681 8.56239,-8.5998468 19.241329,-8.5998468 9.81307,0 17.5096,6.5871168 7.69654,6.587116 12.69928,19.029448 l -14.33479,24.335738 q -6.25343,-15.003989 -14.71962,-15.003989 -7.11929,0 -11.448589,8.782823 -4.32929,8.599847 -4.32929,23.237885 0,14.638038 4.32929,23.42086 4.329299,8.59985 11.448589,8.59985 8.46619,0 14.71962,-15.00399 l 14.33479,24.33573 q -5.00274,12.44234 -12.69928,19.02945 -7.69653,6.58712 -17.5096,6.58712 z"
         style="font-style:normal;font-variant:normal;font-weight:900;font-stretch:normal;font-size:132.67800903px;line-height:1.25;font-family:'Montserrat Black';-inkscape-font-specification:'Montserrat Black, Heavy';font-variant-ligatures:normal;font-variant-caps:normal;font-variant-numeric:normal;font-feature-settings:normal;text-align:start;letter-spacing:31.09640503px;word-spacing:0px;writing-mode:lr-tb;text-anchor:start;fill:#ff0000;fill-opacity:1;stroke:#ffffff;stroke-width:4.23333311;stroke-linecap:round;stroke-linejoin:round;stroke-miterlimit:4;stroke-dasharray:none"
         id="path8976"
         inkscape:connector-curvature="0" />
      <path
         d="m -90.130561,137.577 q -10.678939,0 -19.241329,-8.41687 -8.56239,-8.59985 -13.46893,-23.78681 -4.81034,-15.36994 -4.81034,-34.76534 0,-19.3954 4.81034,-34.582365 4.90654,-15.369938 13.46893,-23.78681 8.56239,-8.5998468 19.241329,-8.5998468 9.81307,0 17.5096,6.5871168 7.69654,6.587116 12.69928,19.029448 l -14.33479,24.335738 q -6.25343,-15.003989 -14.71962,-15.003989 -7.11929,0 -11.448589,8.782823 -4.32929,8.599847 -4.32929,23.237885 0,14.638038 4.32929,23.42086 4.329299,8.59985 11.448589,8.59985 8.46619,0 14.71962,-15.00399 l 14.33479,24.33573 q -5.00274,12.44234 -12.69928,19.02945 -7.69653,6.58712 -17.5096,6.58712 z"
         style="font-style:normal;font-variant:normal;font-weight:900;font-stretch:normal;font-size:132.67800903px;line-height:1.25;font-family:'Montserrat Black';-inkscape-font-specification:'Montserrat Black, Heavy';font-variant-ligatures:normal;font-variant-caps:normal;font-variant-numeric:normal;font-feature-settings:normal;text-align:start;letter-spacing:31.09640503px;word-spacing:0px;writing-mode:lr-tb;text-anchor:start;fill:#0000ff;fill-opacity:1;stroke:#0000ff;stroke-width:2.11666656;stroke-linecap:round;stroke-linejoin:round;stroke-miterlimit:4;stroke-dasharray:none"
         id="path8971"
         inkscape:connector-curvature="0" />
      <path
         d="m -90.130561,137.577 q -10.678939,0 -19.241329,-8.41687 -8.56239,-8.59985 -13.46893,-23.78681 -4.81034,-15.36994 -4.81034,-34.76534 0,-19.3954 4.81034,-34.582365 4.90654,-15.369938 13.46893,-23.78681 8.56239,-8.5998468 19.241329,-8.5998468 9.81307,0 17.5096,6.5871168 7.69654,6.587116 12.69928,19.029448 l -14.33479,24.335738 q -6.25343,-15.003989 -14.71962,-15.003989 -7.11929,0 -11.448589,8.782823 -4.32929,8.599847 -4.32929,23.237885 0,14.638038 4.32929,23.42086 4.329299,8.59985 11.448589,8.59985 8.46619,0 14.71962,-15.00399 l 14.33479,24.33573 q -5.00274,12.44234 -12.69928,19.02945 -7.69653,6.58712 -17.5096,6.58712 z"
         style="font-style:normal;font-variant:normal;font-weight:900;font-stretch:normal;font-size:132.67800903px;line-height:1.25;font-family:'Montserrat Black';-inkscape-font-specification:'Montserrat Black, Heavy';font-variant-ligatures:normal;font-variant-caps:normal;font-variant-numeric:normal;font-feature-settings:normal;text-align:start;letter-spacing:31.09640503px;word-spacing:0px;writing-mode:lr-tb;text-anchor:start;fill:#ffffff;fill-opacity:1;stroke:none;stroke-width:3.1096406"
         id="path8966"
         inkscape:connector-curvature="0" />
    </g>
    <g
       id="g9002"
       transform="translate(67.959831,-6.3559554)">
      <path
         transform="scale(0.72511363,1.3790942)"
         d="m -297.9138,73.225628 h -8.49139 v 23.35133 H -337.7172 V 3.7023514 h 44.71249 q 12.86977,0 22.42258,4.2456963 9.55282,4.2456963 14.72726,12.2063763 5.17444,7.960681 5.17444,18.574922 0,9.95085 -4.51105,17.380819 -4.51105,7.429968 -13.00244,11.808343 l 19.50366,28.65845 h -33.43485 z m 15.65601,-34.496282 q 0,-5.174443 -3.18427,-7.960681 -3.18428,-2.918916 -9.55282,-2.918916 h -11.41031 v 21.759194 h 11.41031 q 6.36854,0 9.55282,-2.786239 3.18427,-2.918916 3.18427,-8.093358 z"
         style="font-style:normal;font-variant:normal;font-weight:900;font-stretch:normal;font-size:132.67800903px;line-height:1.25;font-family:'Montserrat Black';-inkscape-font-specification:'Montserrat Black, Heavy';font-variant-ligatures:normal;font-variant-caps:normal;font-variant-numeric:normal;font-feature-settings:normal;text-align:start;letter-spacing:31.09640503px;word-spacing:0px;writing-mode:lr-tb;text-anchor:start;fill:#000000;fill-opacity:1;stroke:#000000;stroke-width:4.23333311;stroke-linecap:round;stroke-linejoin:round;stroke-miterlimit:4;stroke-dasharray:none;filter:url(#filter8960)"
         id="path8979"
         inkscape:connector-curvature="0" />
      <path
         d="m -219.82139,97.78511 h -6.15722 v 32.20368 h -22.70477 V 1.9059618 h 32.42164 q 9.33205,0 16.25892,5.8552152 6.92688,5.855215 10.67894,16.833743 3.75205,10.978529 3.75205,25.616566 0,13.723161 -3.27102,23.969787 -3.27102,10.246627 -9.42825,16.284817 l 14.14237,39.5227 h -24.24406 z M -208.469,50.211486 q 0,-7.136043 -2.30896,-10.978527 -2.30896,-4.025461 -6.92688,-4.025461 h -8.27377 v 30.007977 h 8.27377 q 4.61792,0 6.92688,-3.842484 2.30896,-4.02546 2.30896,-11.161505 z"
         style="font-style:normal;font-variant:normal;font-weight:900;font-stretch:normal;font-size:132.67800903px;line-height:1.25;font-family:'Montserrat Black';-inkscape-font-specification:'Montserrat Black, Heavy';font-variant-ligatures:normal;font-variant-caps:normal;font-variant-numeric:normal;font-feature-settings:normal;text-align:start;letter-spacing:31.09640503px;word-spacing:0px;writing-mode:lr-tb;text-anchor:start;fill:#ff0000;fill-opacity:1;stroke:#ffffff;stroke-width:4.23333311;stroke-linecap:round;stroke-linejoin:round;stroke-miterlimit:4;stroke-dasharray:none"
         id="path8974"
         inkscape:connector-curvature="0" />
      <path
         d="m -219.82139,97.78511 h -6.15722 v 32.20368 h -22.70477 V 1.9059618 h 32.42164 q 9.33205,0 16.25892,5.8552152 6.92688,5.855215 10.67894,16.833743 3.75205,10.978529 3.75205,25.616566 0,13.723161 -3.27102,23.969787 -3.27102,10.246627 -9.42825,16.284817 l 14.14237,39.5227 h -24.24406 z M -208.469,50.211486 q 0,-7.136043 -2.30896,-10.978527 -2.30896,-4.025461 -6.92688,-4.025461 h -8.27377 v 30.007977 h 8.27377 q 4.61792,0 6.92688,-3.842484 2.30896,-4.02546 2.30896,-11.161505 z"
         style="font-style:normal;font-variant:normal;font-weight:900;font-stretch:normal;font-size:132.67800903px;line-height:1.25;font-family:'Montserrat Black';-inkscape-font-specification:'Montserrat Black, Heavy';font-variant-ligatures:normal;font-variant-caps:normal;font-variant-numeric:normal;font-feature-settings:normal;text-align:start;letter-spacing:31.09640503px;word-spacing:0px;writing-mode:lr-tb;text-anchor:start;fill:#0000ff;fill-opacity:1;stroke:#0000ff;stroke-width:2.11666656;stroke-linecap:round;stroke-linejoin:round;stroke-miterlimit:4;stroke-dasharray:none"
         id="path8969"
         inkscape:connector-curvature="0" />
      <path
         d="m -219.82139,97.78511 h -6.15722 v 32.20368 h -22.70477 V 1.9059618 h 32.42164 q 9.33205,0 16.25892,5.8552152 6.92688,5.855215 10.67894,16.833743 3.75205,10.978529 3.75205,25.616566 0,13.723161 -3.27102,23.969787 -3.27102,10.246627 -9.42825,16.284817 l 14.14237,39.5227 h -24.24406 z M -208.469,50.211486 q 0,-7.136043 -2.30896,-10.978527 -2.30896,-4.025461 -6.92688,-4.025461 h -8.27377 v 30.007977 h 8.27377 q 4.61792,0 6.92688,-3.842484 2.30896,-4.02546 2.30896,-11.161505 z"
         style="font-style:normal;font-variant:normal;font-weight:900;font-stretch:normal;font-size:132.67800903px;line-height:1.25;font-family:'Montserrat Black';-inkscape-font-specification:'Montserrat Black, Heavy';font-variant-ligatures:normal;font-variant-caps:normal;font-variant-numeric:normal;font-feature-settings:normal;text-align:start;letter-spacing:31.09640503px;word-spacing:0px;writing-mode:lr-tb;text-anchor:start;fill:#ffffff;fill-opacity:1;stroke:none;stroke-width:3.1096406"
         id="path8964"
         inkscape:connector-curvature="0" />
    </g>
  </g>
</svg>
