<?xml version="1.0" encoding="UTF-8" standalone="no"?>
<!-- Created with Inkscape (http://www.inkscape.org/) -->

<svg
   xmlns:dc="http://purl.org/dc/elements/1.1/"
   xmlns:cc="http://creativecommons.org/ns#"
   xmlns:rdf="http://www.w3.org/1999/02/22-rdf-syntax-ns#"
   xmlns:svg="http://www.w3.org/2000/svg"
   xmlns="http://www.w3.org/2000/svg"
   xmlns:xlink="http://www.w3.org/1999/xlink"
   xmlns:sodipodi="http://sodipodi.sourceforge.net/DTD/sodipodi-0.dtd"
   xmlns:inkscape="http://www.inkscape.org/namespaces/inkscape"
   width="210mm"
   height="297mm"
   viewBox="0 0 210 297"
   version="1.1"
   id="svg4530"
   inkscape:version="0.92.4 (5da689c313, 2019-01-14)"
   sodipodi:docname="desenho.svg">
  <defs
     id="defs4524">
    <linearGradient
       inkscape:collect="always"
       id="linearGradient7378">
      <stop
         style="stop-color:#000080;stop-opacity:1;"
         offset="0"
         id="stop7374" />
      <stop
         style="stop-color:#000068;stop-opacity:0.95918363"
         offset="1"
         id="stop7376" />
    </linearGradient>
    <radialGradient
       inkscape:collect="always"
       xlink:href="#linearGradient7378"
       id="radialGradient7382"
       cx="400.54102"
       cy="487.0632"
       fx="400.54102"
       fy="487.0632"
       r="109.82727"
       gradientTransform="matrix(2.1006519,-1.1532561,0.88955771,1.6203261,-874.12707,159.29943)"
       gradientUnits="userSpaceOnUse" />
  </defs>
  <sodipodi:namedview
     id="base"
     pagecolor="#ffffff"
     bordercolor="#666666"
     borderopacity="1.0"
     inkscape:pageopacity="0.0"
     inkscape:pageshadow="2"
     inkscape:zoom="1.5395044"
     inkscape:cx="377.83393"
     inkscape:cy="630.94"
     inkscape:document-units="mm"
     inkscape:current-layer="layer1"
     showgrid="false"
     inkscape:window-width="1366"
     inkscape:window-height="705"
     inkscape:window-x="-8"
     inkscape:window-y="-8"
     inkscape:window-maximized="1" />
  <metadata
     id="metadata4527">
    <rdf:RDF>
      <cc:Work
         rdf:about="">
        <dc:format>image/svg+xml</dc:format>
        <dc:type
           rdf:resource="http://purl.org/dc/dcmitype/StillImage" />
        <dc:title></dc:title>
      </cc:Work>
    </rdf:RDF>
  </metadata>
  <g
     inkscape:label="Layer 1"
     inkscape:groupmode="layer"
     id="layer1">
    <path
       style="color:#000000;font-style:normal;font-variant:normal;font-weight:normal;font-stretch:normal;font-size:medium;line-height:normal;font-family:sans-serif;font-variant-ligatures:normal;font-variant-position:normal;font-variant-caps:normal;font-variant-numeric:normal;font-variant-alternates:normal;font-feature-settings:normal;text-indent:0;text-align:start;text-decoration:none;text-decoration-line:none;text-decoration-style:solid;text-decoration-color:#000000;letter-spacing:normal;word-spacing:normal;text-transform:none;writing-mode:lr-tb;direction:ltr;text-orientation:mixed;dominant-baseline:auto;baseline-shift:baseline;text-anchor:start;white-space:normal;shape-padding:0;clip-rule:nonzero;display:inline;overflow:visible;visibility:visible;opacity:1;isolation:auto;mix-blend-mode:normal;color-interpolation:sRGB;color-interpolation-filters:linearRGB;solid-color:#000000;solid-opacity:1;vector-effect:none;fill:url(#radialGradient7382);fill-opacity:1;fill-rule:nonzero;stroke:none;stroke-width:8.152174;stroke-linecap:butt;stroke-linejoin:miter;stroke-miterlimit:4;stroke-dasharray:none;stroke-dashoffset:0;stroke-opacity:1;color-rendering:auto;image-rendering:auto;shape-rendering:auto;text-rendering:auto;enable-background:accumulate"
       d="M 434.50586 338.15625 C 371.20957 407.94584 300.71679 492.19823 303.8125 494.84961 C 303.80683 494.87607 371.78685 409.09247 427.39844 357.28906 L 434.50586 338.15625 z M 452.26367 338.5 C 433.45187 360.46473 393.24219 412.50781 393.24219 412.50781 C 393.24219 412.50781 426.87769 379.0663 445.68945 357.10156 L 452.26367 338.5 z M 414.51758 340.41992 C 378.64533 382.30455 300.34179 472.32909 303.4375 474.98047 C 303.4375 474.98047 372.76838 397.52134 408.64062 355.63672 L 414.51758 340.41992 z M 467.41211 341.88867 L 412.34375 412.45312 L 459.32227 362.9043 L 467.41211 341.88867 z M 393.57812 343.79102 C 364.26634 378.01561 300.34375 452.84178 303.43945 455.49414 C 303.43945 455.49414 358.81907 393.66404 388.13086 359.43945 L 393.57812 343.79102 z M 372.49023 347.33789 C 350.68636 372.7962 299.40626 435.93261 302.50195 438.58398 C 302.50195 438.58398 344.8094 389.30599 366.61328 363.84766 L 372.49023 347.33789 z M 350.73633 351.6582 C 337.03565 367.65519 299.78809 413.2051 302.88477 415.85742 C 302.88477 415.85742 331.16065 385.02629 344.86133 369.0293 L 350.73633 351.6582 z M 486.63477 353.05469 L 467.94336 364.19727 C 453.5534 380.99908 432.71816 405.33914 427.94727 412.27148 C 434.07536 403.93858 472.17382 369.93933 486.63477 353.05469 z M 427.94727 412.27148 C 427.71433 412.58823 427.51245 412.87895 427.375 413.11914 C 427.51902 412.88711 427.7415 412.57047 427.94727 412.27148 z M 328.69531 356.31641 C 323.60238 362.26293 300.04297 393.92284 303.13867 396.57422 C 303.13867 396.57422 320.74496 375.75511 325.83789 369.80859 L 328.69531 356.31641 z M 500.17773 360.34766 L 479.18359 371.82227 C 464.00872 389.54053 451.35614 405.9636 439.32031 420.45703 C 439.32031 420.45703 485.00286 378.06591 500.17773 360.34766 z M 507.34375 371.02734 L 491.61328 376.9082 C 474.09483 397.36285 445.59375 433.66406 445.59375 433.66406 C 445.59375 433.66406 489.82526 391.482 507.34375 371.02734 z M 516.04883 380.88477 L 493.67969 392.72656 C 482.90824 407.46963 449.69941 450.28271 409.87305 496.72266 C 453.3492 451.23069 497.59653 404.04075 516.04883 380.88477 z M 409.87305 496.72266 C 351.08903 558.23225 293.71335 616.62885 303.4043 608.23438 C 337.19657 578.50109 375.93552 536.29588 409.87305 496.72266 z M 519.88086 398.54102 L 493.29492 416.59375 C 457.85391 457.97485 418.8652 501.92089 421.96094 504.57227 C 421.96094 504.57227 484.43985 439.92208 519.88086 398.54102 z M 521.98242 417.16602 L 492.76562 438.50781 C 457.04474 480.21562 419.79199 520.70605 422.88867 523.35742 C 428.61692 517.12721 486.26158 458.87386 521.98242 417.16602 z M 370.74219 434.15625 C 365.75436 434.07057 300.6597 512.30802 303.70703 514.91797 L 370.93359 434.2207 C 370.88522 434.17926 370.82136 434.15761 370.74219 434.15625 z M 513.57227 435.5293 C 478.42383 476.56877 418.72071 543.74315 421.81641 546.39453 C 427.87265 536.87488 464.54883 504.56877 499.69727 463.5293 L 513.57227 435.5293 z M 371.07812 457.66406 C 366.09024 457.66668 300.99368 538.7006 304.04102 541.31055 C 310.09725 535.08034 374.36524 460.37794 371.26953 457.72656 C 371.22116 457.68513 371.1573 457.66402 371.07812 457.66406 z M 375.2832 474.29883 C 370.17275 474.47042 301.15188 560.91154 304.19922 563.52148 C 304.19922 563.52148 378.57227 477.0088 375.47656 474.35742 C 375.42819 474.31599 375.36432 474.2961 375.2832 474.29883 z M 386.1543 481.26172 C 380.71927 481.77059 301.314 579.00333 304.36133 581.61328 C 304.36133 581.61328 389.45312 483.96192 386.35742 481.31055 C 386.30905 481.26912 386.24057 481.25364 386.1543 481.26172 z M 400.54102 486.57422 C 394.65906 487.42731 300.95071 595.67716 303.99805 598.28711 C 326.50165 570.01738 403.8496 489.26856 400.75391 486.61719 C 400.70554 486.57576 400.63438 486.56068 400.54102 486.57422 z M 482.71289 502.11328 L 461.39062 517.53516 C 440.91178 541.44634 418.93946 566.60644 422.03516 569.25781 C 441.57822 546.58023 462.23405 526.0245 482.71289 502.11328 z M 481.43164 524.40625 L 467.67383 531.27539 C 447.13493 555.25672 418.28126 588.94046 421.37695 591.5918 C 432.3674 575.49316 460.89274 548.38754 481.43164 524.40625 z M 483.10547 541.11133 L 468.36133 550.94141 C 450.32996 571.99496 419.87106 609.13573 422.9668 611.78711 C 430.3388 602.26742 465.07406 562.16488 483.10547 541.11133 z M 491.68164 555.19336 L 480.22656 558.77148 C 467.52399 573.60311 427.09571 621.11038 430.19141 623.76172 C 430.19141 623.76172 478.97903 570.02494 491.68164 555.19336 z M 498.54883 567.42969 L 486.10742 572.98242 C 478.74978 581.57325 448.34766 618.14355 451.44336 620.79492 C 456.51276 615.55158 491.19118 576.02052 498.54883 567.42969 z M 500.26953 574.24219 C 498.27156 576.57503 464.69336 615.75097 467.78906 618.40234 C 480.86143 593.608 505.12117 584.95084 507.11914 583.82031 L 500.26953 574.24219 z M 361.64062 574.3418 L 341.20703 583.03516 C 326.86889 599.77642 305.36914 614.61719 305.36914 614.61719 C 297.73409 620.20087 347.30248 591.08306 361.64062 574.3418 z M 361.88672 591.77539 L 346.11914 598.75 C 333.724 613.22261 307.10471 621.34053 303.84961 621.97852 C 298.23171 626.68019 347.78665 608.23868 361.88672 591.77539 z M 303.84961 621.97852 C 303.94447 621.89913 304.01385 621.83099 304.14062 621.73828 C 303.35511 622.01117 303.33936 622.07852 303.84961 621.97852 z M 359.92383 607.52539 C 358.80032 607.49319 355.12722 608.45458 347.97852 610.66016 C 340.00376 619.3556 300.74415 628.63769 303.83984 631.28906 L 314.57031 629.95703 L 333.96875 623.08203 C 349.00766 614.18144 362.795 607.60767 359.92383 607.52539 z M 360.22266 617.64258 C 332.51778 637.57222 304.61914 638.39453 304.61914 638.39453 C 304.61914 638.39453 350.98585 642.3563 360.22266 617.64258 z "
       transform="scale(0.26458333)"
       id="path5693" />
  </g>
</svg>
