<?xml version="1.0" encoding="UTF-8" standalone="no"?>
<!-- Created with Inkscape (http://www.inkscape.org/) -->

<svg
   xmlns:dc="http://purl.org/dc/elements/1.1/"
   xmlns:cc="http://creativecommons.org/ns#"
   xmlns:rdf="http://www.w3.org/1999/02/22-rdf-syntax-ns#"
   xmlns:svg="http://www.w3.org/2000/svg"
   xmlns="http://www.w3.org/2000/svg"
   xmlns:sodipodi="http://sodipodi.sourceforge.net/DTD/sodipodi-0.dtd"
   xmlns:inkscape="http://www.inkscape.org/namespaces/inkscape"
   width="210mm"
   height="297mm"
   viewBox="0 0 210 297"
   version="1.1"
   id="svg8"
   inkscape:version="0.92.4 (5da689c313, 2019-01-14)"
   sodipodi:docname="desenho-2.svg">
  <defs
     id="defs2">
    <inkscape:path-effect
       effect="curvestitching"
       id="path-effect4556"
       is_visible="true"
       count="30"
       startpoint_edge_variation="0;1"
       startpoint_spacing_variation="0;1"
       endpoint_edge_variation="0;1"
       endpoint_spacing_variation="0;1"
       strokepath="M 0,0 H 1"
       prop_scale="1"
       scale_y_rel="false" />
    <inkscape:path-effect
       effect="curvestitching"
       id="path-effect3732"
       is_visible="true"
       count="30"
       startpoint_edge_variation="0;1"
       startpoint_spacing_variation="0;1"
       endpoint_edge_variation="0;1"
       endpoint_spacing_variation="0;1"
       strokepath="m -329.82983,291.76226 c 129.55708,150.6398 143.61275,-127.99911 270.899901,0"
       prop_scale="1"
       scale_y_rel="false"
       strokepath-nodetypes="cc" />
    <inkscape:path-effect
       effect="interpolate"
       id="path-effect27"
       is_visible="true"
       trajectory="M -71.1081,291.76226 H -317.65166"
       equidistant_spacing="true"
       steps="30" />
  </defs>
  <sodipodi:namedview
     id="base"
     pagecolor="#ffffff"
     bordercolor="#666666"
     borderopacity="1.0"
     inkscape:pageopacity="0.0"
     inkscape:pageshadow="2"
     inkscape:zoom="0.48517716"
     inkscape:cx="-860.05699"
     inkscape:cy="794.66062"
     inkscape:document-units="px"
     inkscape:current-layer="layer1"
     showgrid="false"
     showborder="false"
     inkscape:snap-global="true"
     inkscape:snap-others="true"
     inkscape:snap-smooth-nodes="true"
     inkscape:window-width="1366"
     inkscape:window-height="705"
     inkscape:window-x="-8"
     inkscape:window-y="-8"
     inkscape:window-maximized="1"
     showguides="false" />
  <metadata
     id="metadata5">
    <rdf:RDF>
      <cc:Work
         rdf:about="">
        <dc:format>image/svg+xml</dc:format>
        <dc:type
           rdf:resource="http://purl.org/dc/dcmitype/StillImage" />
        <dc:title></dc:title>
      </cc:Work>
    </rdf:RDF>
  </metadata>
  <g
     inkscape:label="Layer 1"
     inkscape:groupmode="layer"
     id="layer1">
    <path
       style="font-style:normal;font-variant:normal;font-weight:900;font-stretch:normal;font-size:64.70817566px;line-height:1.25;font-family:'Montserrat Black';-inkscape-font-specification:'Montserrat Black, Heavy';font-variant-ligatures:normal;font-variant-caps:normal;font-variant-numeric:normal;font-feature-settings:normal;text-align:start;letter-spacing:26.96173859px;word-spacing:0px;writing-mode:lr-tb;text-anchor:start;opacity:1;fill:#008080;fill-opacity:1;stroke:none;stroke-width:23.18494987;stroke-opacity:0.7019608"
       d="m -1160.5859,106.125 -147.8633,0.002 c -5.3669,0 -10.3939,1.4542 -14.752,4 l 313.3203,41.12696 107.11918,-5.30079 -212.53908,-39.82812 h -44.9902 v 0.008 c -0.099,-9.8e-4 -0.1963,-0.008 -0.2949,-0.008 z m 66.9921,0 208.002,38.97852 0.78907,-0.0391 c -7.73133,-7.21722 -16.313,-13.51552 -25.77735,-18.86328 -5.94695,-3.36031 -12.15377,-6.2979 -18.61914,-8.81445 L -1004.2363,106.125 Z m -234.332,7.41992 c -0.6962,0.61383 -1.3679,1.25706 -2.0078,1.9336 l 216.5742,40.89843 81.1563,-4.01562 z m -4.8847,5.46289 c -3.6626,5.22214 -5.8262,11.67185 -5.8262,18.67188 0,12.99437 7.4429,24.10107 18.1308,28.94922 l 190.0567,-9.4043 z m 446.96089,30.11133 -101.86328,5.04297 124.14453,16.29687 c -4.74518,-7.31411 -10.04824,-14.02452 -15.90039,-20.14453 z m -124.18559,6.15039 -86.5156,4.28125 250.27541,47.26758 c -2.64149,-7.98012 -5.80707,-15.61988 -9.52734,-22.89648 -1.59172,-3.11327 -3.26659,-6.13535 -5.02539,-9.06836 z m -103.6054,5.13086 -178.6035,8.83594 h 131.6582 c 0.099,0 0.1966,-0.004 0.2949,-0.0117 v 0.0117 c 16.5873,0.16441 29.8945,14.16703 29.8945,31.54492 0,1.78872 -0.1469,3.5403 -0.418,5.24609 l 114.4844,14.28907 h 14.9453 c 9.3451,0 17.29649,1.62349 23.87699,4.8457 l 40.86328,5.09961 94.25195,-9.91602 c -0.76206,-3.1164 -1.60396,-6.18036 -2.51562,-9.19922 z m -15.709,49.8418 85.5254,16.16797 v -5.49219 z m -3.6426,3.38086 c -4.6531,10.95254 -15.0832,18.58372 -27.2988,18.70507 v 0.0117 h -0.2949 -60.377 c -10.5444,0 -19.7887,5.59748 -25.1836,14.11328 l 55.6973,10.51563 146.625,-15.42969 v -11.05859 z m 291.52345,10.65039 -77.68945,8.17383 80.83008,10.08789 c -0.78556,-6.25777 -1.82991,-12.34632 -3.14063,-18.26172 z m -128.39258,5.875 c 1.18655,1.00842 2.30617,2.09403 3.35938,3.25781 l 12.33203,-1.29883 z m -406.35937,2.19531 c -9.6562,0 -18.218,4.69704 -23.7363,12.02734 l 126.3066,14.92774 c -0.7898,-5.69747 -3.0258,-10.88835 -6.3086,-15.16406 l -62.4433,-11.79102 z m 55.3496,0 36.1309,6.82227 c -5.1488,-4.27098 -11.6664,-6.82227 -18.7793,-6.82227 z m 384.18946,1.94922 -26.75781,2.81445 c 1.17045,1.59524 2.23134,3.29636 3.18359,5.09961 l 123.625,23.36914 c -0.15668,-6.47983 -0.57153,-12.79099 -1.22461,-18.94726 z m -107.14256,11.27344 -132.9395,13.98632 132.9395,25.09766 z m 85.61912,1.10547 c 2.79,7.03696 4.19531,15.39417 4.19531,25.09179 0,9.48484 -1.34283,17.75741 -4.01171,24.83789 l 69.38867,8.20313 50.83593,-8.49414 c 0.81668,-7.89653 1.24024,-16.07183 1.24024,-24.54883 0,-0.70521 -0.0197,-1.39811 -0.0254,-2.09961 z m -444.17582,1.44335 c -2.5583,4.63865 -4.0273,10.02329 -4.0273,15.78321 0,4.19325 -71.962,-7.62806 2.1914,11.83984 l 12.6699,2.38672 118.166,-12.42969 c 0.032,-0.59479 0.051,-1.19352 0.051,-1.79687 0,-0.17883 -0.011,-0.3551 -0.014,-0.53321 z m 154.2227,2.02344 c -1.6663,3.60807 -2.6919,7.60277 -2.9336,11.82617 l 6.1934,0.73243 40.6152,-4.27344 z m 57.5605,10.86914 -36.2968,3.81641 151.0781,17.85547 z m -54.3222,5.71289 -6.0489,0.63672 c 1.64,15.83967 14.4015,28.0918 30.0059,28.0918 h 60.6719 30.5098 c 16.7245,0 30.1914,14.07362 30.1914,31.55469 0,2.05493 -0.1933,4.0605 -0.5489,6.0039 l 20.0489,3.77539 81.54488,-13.62304 c -0.93257,0.0326 -1.87798,0.0508 -2.83988,0.0508 h -42.4394 v -32.72656 z m -28.9356,3.04492 -103.9902,10.94336 77.4199,14.58008 c 13.3913,-1.41287 24.1374,-11.90143 26.5703,-25.52344 z m -117.8398,12.39844 -8.5352,0.89844 c 5.5065,7.53869 14.1941,12.38867 24.0098,12.38867 h 55.0781 z m 432.05468,18.26953 c -0.0164,0.0344 -0.0343,0.0672 -0.0508,0.10157 l 45.33985,8.56445 11.5957,-1.94141 z m 121.38671,0.006 -36.16211,6.04102 34.66016,4.09765 c 0.58149,-3.32211 1.07906,-6.70386 1.50195,-10.13867 z m -123.42578,3.78711 c -1.24139,2.06975 -2.62881,4.00836 -4.17187,5.80664 -4.26839,4.74834 -9.70109,8.20292 -16.27735,10.38477 l 56.3418,-9.41406 z m 73.14258,4.61524 -14.42383,2.40625 60.6543,11.45312 c 0.65794,-2.68842 1.26192,-5.41474 1.80664,-8.18359 z m -25.85156,4.31836 -154.28903,25.76953 180.92965,34.07617 21.80664,2.42383 c 4.72948,-6.64633 8.93946,-13.79981 12.60743,-21.48047 4.1006,-8.58668 7.44189,-17.71284 10.03906,-27.36719 z m -186.71093,23.73046 c -0.3908,1.24657 -0.8491,2.45905 -1.3789,3.63086 l 10.9473,-1.82812 z m 20.9805,3.95118 -24.8321,4.15039 c -0.8397,1.26666 -1.7673,2.46435 -2.7715,3.58593 l 167.34965,18.5879 z m -31.418,11.33398 c -5.0615,4.00637 -11.3774,6.38086 -18.2441,6.38086 h -56.3829 l -50.3339,8.41016 229.414,43.03711 131.9297,-30.5625 -13.11718,-2.46485 z m -249.8965,5.09375 c -16.7246,0 36.1615,8.54442 -30.1875,31.55469 l 132.2246,-22.08594 -50.4726,-9.46875 z m 73.2598,0 40.2422,7.54883 37.4921,-6.26172 h -62.2753 c -2.9802,0 -5.853,-0.4538 -8.5684,-1.28711 z m 40.2129,11.60938 -128.6446,21.49609 314.2403,32.43555 45.582,-10.55664 z m 376.46676,13.82421 -125.79297,29.13868 107.48242,20.16797 -11.89453,-22.22071 c 11.55771,-7.57654 21.6207,-16.61076 30.20508,-27.08594 z m -519.87306,10.16407 c 0.2277,1.87558 0.6045,3.70089 1.1309,5.45703 l 113.0879,21.10742 c 1.4459,-0.22288 2.9263,-0.3418 4.4336,-0.3418 h 135.3398 z m -43.5034,-14.34795 c -122.9622,-37.20781 61.4858,41.85967 73.437,41.85967 h 67.5527 z m 427.8843,35.5667 -43.1192,9.99414 151.48441,15.63476 11.51171,-2.67187 -0.27734,-0.51758 z m -112.5938,6.84179 c 5.9887,2.23355 11.0893,6.38123 14.6406,11.7461 l 30.5625,-7.08008 z m 57.4649,5.92774 -40.7578,9.44336 c 2.0949,4.30084 3.2832,9.17126 3.2832,14.3457 0,0.64189 -0.025,1.27799 -0.061,1.91016 l 55.8262,10.41797 v -28.08789 h 31.584 l 14.7695,27.77343 86.86132,-20.16015 z m 176.9609,13.8418 -1.21289,0.28125 1.44336,0.14843 z m -13.20898,3.0625 -97.16211,22.55468 2.72656,5.12696 116.73047,-13.77149 -6.57617,-12.28515 z m -201.75582,12.77734 c -2.6274,14.6443 -14.8662,25.66211 -29.6621,25.66211 h -30.5098 -5.9961 l 45.6992,4.31836 41.3399,-4.87305 35.4238,-8.22461 v -6.37695 z m 226.07808,4.91601 -109,12.86133 63.38086,11.83399 58.77149,-0.12305 z m -115.73242,15.67774 4.86719,9.15234 43.67773,-0.0918 z m -450.97066,3.78516 c -6.8505,0 -108.5307,-126.18885 -113.5857,-122.19965 l 200.5134,128.33246 c -5.0065,-3.85578 -11.2003,-6.13281 -17.9238,-6.13281 z m 396.9199,0.57421 -34.7149,4.09571 -3.8769,0.90039 38.5918,-0.0801 z m -160.1172,1.17188 c -3.8012,0.67908 -7.3568,2.08792 -10.5254,4.09766 l 52.6953,-0.11133 z m -100.7578,0.39258 -6.7715,1.56836 c -1.5173,0.66027 -2.9689,1.44881 -4.3477,2.34765 l 48.4864,-0.0996 z m 445.9492,6.96484 -39.70898,0.084 44.16601,8.24218 z m -61.2793,0.12891 -62.75195,0.1289 5.18555,9.75 130.82226,12.36524 -5.09961,-9.52539 z m -123.7949,0.2539 -34.8789,0.0703 34.8789,3.29687 z m -76.918,0.16016 -32.9668,3.88867 13.375,1.36719 21.8731,-5.08008 -1.8829,-0.17578 z m -34.7461,0.0723 -34.8789,0.0742 18.3652,1.875 z m -96.4472,0.20312 -68.8106,0.14453 c -5.1688,5.18793 -8.5612,12.28719 -9.1621,20.23633 L -1245,501.19727 c -1.6283,-3.93827 -4.002,-7.45367 -6.9355,-10.35938 z m -105.0489,0.21875 -201.5388,-128.33051 c -4.843,5.59292 -7.7871,13.0186 -7.7871,21.19141 0,1.6663 0.1255,3.30137 0.3613,4.89648 z m 251.1016,0.87109 -22.1602,5.14454 84.2188,8.60156 v -7.88086 z m -115.0195,0.31836 c -1.772,1.99085 -3.3008,4.2206 -4.5352,6.64258 l 24.8301,-2.92969 z m -127.0137,0.81641 -217.2009,-100.33246 c 0.5581,2.02278 1.3043,3.95948 2.2168,5.79102 l 1.8984,0.16211 219.4451,113.90863 c 10e-5,-0.0412 0,-0.0818 0,-0.12305 0,-7.33385 -2.3774,-14.05974 -6.3633,-19.40625 z m 175.9433,3.54492 -1.7343,0.20703 16.2695,2.97461 5.0723,-1.18164 z m -15.25,1.80078 -40.0019,4.71875 c -1.1288,3.31862 -1.7481,6.89371 -1.7481,10.62696 0,0.88084 0.044,1.75111 0.1114,2.61328 l 61.6211,-14.30469 z m 47.1485,1.46289 -7.4707,1.72657 103.7207,18.97461 v -10.8711 z m -17.2676,4 -70.9727,16.47461 c 2.8857,14.29489 14.9713,24.96289 29.5313,24.96289 h 38.4922 30.5098 85.957 v -20.66992 z m 181.99805,0.39453 4.72656,8.88672 131.4375,13.42578 -5.32422,-9.94726 z m -268.34175,0.80469 -86.2911,10.17969 c 0.3914,8.86748 4.2553,16.74977 10.2071,22.21875 l 76.7129,-17.80664 c 0.3438,-1.91249 0.5312,-3.88432 0.5312,-5.9043 0,-3.01708 -0.4104,-5.9282 -1.1601,-8.6875 z m -98.1368,11.57813 -103.9297,12.26172 93.2637,7.89843 c 5.7206,-4.94362 9.6486,-12.05965 10.666,-20.16015 z m 373.46878,0.75976 9.99805,18.80078 49.74609,9.09961 h 79.45704 l -7.75,-14.47656 z m -275.80268,6.61328 -69.3047,16.0879 48.6347,4.11718 c 9.7069,-2.72077 17.4462,-10.34751 20.67,-20.20508 z m -316.2225,-121.27581 c 5.4918,7.73161 109.6729,141.27777 119.6346,141.27777 h 69.0039 c 5.1057,0 9.9037,-1.31711 14.1113,-3.63672 z m 604.41776,137.96527 2.44532,4.59765 h 22.68359 z M -1305,544.84375 c 1.6824,0.30167 3.4105,0.4668 5.1777,0.4668 h 0.3399 z"
       transform="scale(0.26458333)"
       id="path819"
       inkscape:connector-curvature="0"
       sodipodi:nodetypes="ccccccccccccccccccccccsccccccccccccccccsccsccscccccccccccccscccccccccccccsccccsccsccccccccccccscccscccscccscccccccccccccscsscccscccccccccsccccccccccccccccccccccccccccccccccccccsccccccscccscccscccccccccccccccscccsccccccccccccccsccccccccccccccccccsccccccccccccccccsccsscccccccccccccccccccccccccccccccccccccccccccccsccccccccccccccccsccccccccsccccccccccsccccccccccccccsccccccccccccccccsscccccccscc" />
  </g>
</svg>
