<?xml version="1.0" encoding="UTF-8" standalone="no"?>
<!-- Created with Inkscape (http://www.inkscape.org/) -->

<svg
   xmlns:dc="http://purl.org/dc/elements/1.1/"
   xmlns:cc="http://creativecommons.org/ns#"
   xmlns:rdf="http://www.w3.org/1999/02/22-rdf-syntax-ns#"
   xmlns:svg="http://www.w3.org/2000/svg"
   xmlns="http://www.w3.org/2000/svg"
   xmlns:sodipodi="http://sodipodi.sourceforge.net/DTD/sodipodi-0.dtd"
   xmlns:inkscape="http://www.inkscape.org/namespaces/inkscape"
   width="210mm"
   height="297mm"
   viewBox="0 0 210 297"
   version="1.1"
   id="svg8311"
   inkscape:version="0.92.4 (5da689c313, 2019-01-14)"
   sodipodi:docname="desenho-1.svg">
  <defs
     id="defs8305">
    <filter
       inkscape:collect="always"
       style="color-interpolation-filters:sRGB"
       id="filter8960"
       x="-0.012017341"
       width="1.0240347"
       y="-0.027162403"
       height="1.0543248">
      <feGaussianBlur
         inkscape:collect="always"
         stdDeviation="1.0991753"
         id="feGaussianBlur8962" />
    </filter>
  </defs>
  <sodipodi:namedview
     id="base"
     pagecolor="#ffffff"
     bordercolor="#666666"
     borderopacity="1.0"
     inkscape:pageopacity="0.0"
     inkscape:pageshadow="2"
     inkscape:zoom="0.54115914"
     inkscape:cx="-729.29725"
     inkscape:cy="714.07377"
     inkscape:document-units="mm"
     inkscape:current-layer="layer1"
     showgrid="false"
     inkscape:window-width="1366"
     inkscape:window-height="705"
     inkscape:window-x="-8"
     inkscape:window-y="-8"
     inkscape:window-maximized="1" />
  <metadata
     id="metadata8308">
    <rdf:RDF>
      <cc:Work
         rdf:about="">
        <dc:format>image/svg+xml</dc:format>
        <dc:type
           rdf:resource="http://purl.org/dc/dcmitype/StillImage" />
        <dc:title></dc:title>
      </cc:Work>
    </rdf:RDF>
  </metadata>
  <g
     inkscape:label="Layer 1"
     inkscape:groupmode="layer"
     id="layer1">
    <text
       xml:space="preserve"
       style="font-style:normal;font-variant:normal;font-weight:normal;font-stretch:normal;font-size:10.58333302px;line-height:1.25;font-family:'Wide Latin';-inkscape-font-specification:'Wide Latin';letter-spacing:2.64583325px;word-spacing:0px;fill:#000000;fill-opacity:1;stroke:none;stroke-width:0.26458332"
       x="-192.701"
       y="63.696434"
       id="text8355"><tspan
         sodipodi:role="line"
         id="tspan8353"
         x="-192.701"
         y="73.053497"
         style="stroke-width:0.26458332"></tspan></text>
    <g
       id="g9014"
       transform="matrix(2.3219921,0,0,2.3586259,243.14898,136.29219)"
       style="fill:#0000ff">
      <g
         transform="translate(67.959831,-6.3559554)"
         id="g9002"
         style="fill:#0000ff">
        <g
           id="g9142"
           transform="translate(223.9286,-2.8312171)">
          <g
             transform="translate(-159.59197,98.901895)"
             style="fill:#0000ff"
             id="g8996">
            <path
               transform="matrix(0.72511363,0,0,1.3790942,29.586318,4.6606032)"
               d="m -159.86026,98.699806 q -14.72726,0 -26.5356,-6.103189 -11.80835,-6.235866 -18.57492,-17.248141 -6.6339,-11.144953 -6.6339,-25.208821 0,-14.063869 6.6339,-25.076144 6.76657,-11.144953 18.57492,-17.2481413 11.80834,-6.2358665 26.5356,-6.2358665 13.53316,0 24.1474,4.7764084 10.61424,4.7764084 17.51349,13.7985124 L -137.96839,37.8006 q -8.62407,-10.879597 -20.29973,-10.879597 -9.81818,0 -15.78869,6.368544 -5.97051,6.235867 -5.97051,16.850108 0,10.61424 5.97051,16.982785 5.97051,6.235866 15.78869,6.235866 11.67566,0 20.29973,-10.879597 l 19.76902,17.646176 q -6.89925,9.022104 -17.51349,13.798513 -10.61424,4.776408 -24.1474,4.776408 z"
               style="font-style:normal;font-variant:normal;font-weight:900;font-stretch:normal;font-size:132.67800903px;line-height:1.25;font-family:'Montserrat Black';-inkscape-font-specification:'Montserrat Black, Heavy';font-variant-ligatures:normal;font-variant-caps:normal;font-variant-numeric:normal;font-feature-settings:normal;text-align:start;letter-spacing:31.09640503px;word-spacing:0px;writing-mode:lr-tb;text-anchor:start;fill:#0000ff;fill-opacity:1;stroke:#000000;stroke-width:4.23333311;stroke-linecap:round;stroke-linejoin:round;stroke-miterlimit:4;stroke-dasharray:none;filter:url(#filter8960)"
               id="path8981"
               inkscape:connector-curvature="0" />
            <path
               d="m -90.130561,137.577 q -10.678939,0 -19.241329,-8.41687 -8.56239,-8.59985 -13.46893,-23.78681 -4.81034,-15.36994 -4.81034,-34.76534 0,-19.3954 4.81034,-34.582365 4.90654,-15.369938 13.46893,-23.78681 8.56239,-8.5998468 19.241329,-8.5998468 9.81307,0 17.5096,6.5871168 7.69654,6.587116 12.69928,19.029448 l -14.33479,24.335738 q -6.25343,-15.003989 -14.71962,-15.003989 -7.11929,0 -11.448589,8.782823 -4.32929,8.599847 -4.32929,23.237885 0,14.638038 4.32929,23.42086 4.329299,8.59985 11.448589,8.59985 8.46619,0 14.71962,-15.00399 l 14.33479,24.33573 q -5.00274,12.44234 -12.69928,19.02945 -7.69653,6.58712 -17.5096,6.58712 z"
               style="font-style:normal;font-variant:normal;font-weight:900;font-stretch:normal;font-size:132.67800903px;line-height:1.25;font-family:'Montserrat Black';-inkscape-font-specification:'Montserrat Black, Heavy';font-variant-ligatures:normal;font-variant-caps:normal;font-variant-numeric:normal;font-feature-settings:normal;text-align:start;letter-spacing:31.09640503px;word-spacing:0px;writing-mode:lr-tb;text-anchor:start;fill:#0000ff;fill-opacity:1;stroke:#ffffff;stroke-width:4.23333311;stroke-linecap:round;stroke-linejoin:round;stroke-miterlimit:4;stroke-dasharray:none"
               id="path8976"
               inkscape:connector-curvature="0" />
            <path
               d="m -90.130561,137.577 q -10.678939,0 -19.241329,-8.41687 -8.56239,-8.59985 -13.46893,-23.78681 -4.81034,-15.36994 -4.81034,-34.76534 0,-19.3954 4.81034,-34.582365 4.90654,-15.369938 13.46893,-23.78681 8.56239,-8.5998468 19.241329,-8.5998468 9.81307,0 17.5096,6.5871168 7.69654,6.587116 12.69928,19.029448 l -14.33479,24.335738 q -6.25343,-15.003989 -14.71962,-15.003989 -7.11929,0 -11.448589,8.782823 -4.32929,8.599847 -4.32929,23.237885 0,14.638038 4.32929,23.42086 4.329299,8.59985 11.448589,8.59985 8.46619,0 14.71962,-15.00399 l 14.33479,24.33573 q -5.00274,12.44234 -12.69928,19.02945 -7.69653,6.58712 -17.5096,6.58712 z"
               style="font-style:normal;font-variant:normal;font-weight:900;font-stretch:normal;font-size:132.67800903px;line-height:1.25;font-family:'Montserrat Black';-inkscape-font-specification:'Montserrat Black, Heavy';font-variant-ligatures:normal;font-variant-caps:normal;font-variant-numeric:normal;font-feature-settings:normal;text-align:start;letter-spacing:31.09640503px;word-spacing:0px;writing-mode:lr-tb;text-anchor:start;fill:#0000ff;fill-opacity:1;stroke:#0000ff;stroke-width:2.11666656;stroke-linecap:round;stroke-linejoin:round;stroke-miterlimit:4;stroke-dasharray:none"
               id="path8971"
               inkscape:connector-curvature="0" />
            <path
               d="m -90.130561,137.577 q -10.678939,0 -19.241329,-8.41687 -8.56239,-8.59985 -13.46893,-23.78681 -4.81034,-15.36994 -4.81034,-34.76534 0,-19.3954 4.81034,-34.582365 4.90654,-15.369938 13.46893,-23.78681 8.56239,-8.5998468 19.241329,-8.5998468 9.81307,0 17.5096,6.5871168 7.69654,6.587116 12.69928,19.029448 l -14.33479,24.335738 q -6.25343,-15.003989 -14.71962,-15.003989 -7.11929,0 -11.448589,8.782823 -4.32929,8.599847 -4.32929,23.237885 0,14.638038 4.32929,23.42086 4.329299,8.59985 11.448589,8.59985 8.46619,0 14.71962,-15.00399 l 14.33479,24.33573 q -5.00274,12.44234 -12.69928,19.02945 -7.69653,6.58712 -17.5096,6.58712 z"
               style="font-style:normal;font-variant:normal;font-weight:900;font-stretch:normal;font-size:132.67800903px;line-height:1.25;font-family:'Montserrat Black';-inkscape-font-specification:'Montserrat Black, Heavy';font-variant-ligatures:normal;font-variant-caps:normal;font-variant-numeric:normal;font-feature-settings:normal;text-align:start;letter-spacing:31.09640503px;word-spacing:0px;writing-mode:lr-tb;text-anchor:start;fill:#0000ff;fill-opacity:1;stroke:none;stroke-width:3.1096406"
               id="path8966"
               inkscape:connector-curvature="0" />
          </g>
          <path
             transform="matrix(0.72511363,0,0,1.3790942,-91.632137,92.54594)"
             d="m -297.9138,73.225628 h -8.49139 v 23.35133 H -337.7172 V 3.7023514 h 44.71249 q 12.86977,0 22.42258,4.2456963 9.55282,4.2456963 14.72726,12.2063763 5.17444,7.960681 5.17444,18.574922 0,9.95085 -4.51105,17.380819 -4.51105,7.429968 -13.00244,11.808343 l 19.50366,28.65845 h -33.43485 z m 15.65601,-34.496282 q 0,-5.174443 -3.18427,-7.960681 -3.18428,-2.918916 -9.55282,-2.918916 h -11.41031 v 21.759194 h 11.41031 q 6.36854,0 9.55282,-2.786239 3.18427,-2.918916 3.18427,-8.093358 z"
             style="font-style:normal;font-variant:normal;font-weight:900;font-stretch:normal;font-size:132.67800903px;line-height:1.25;font-family:'Montserrat Black';-inkscape-font-specification:'Montserrat Black, Heavy';font-variant-ligatures:normal;font-variant-caps:normal;font-variant-numeric:normal;font-feature-settings:normal;text-align:start;letter-spacing:31.09640503px;word-spacing:0px;writing-mode:lr-tb;text-anchor:start;fill:#0000ff;fill-opacity:1;stroke:#000000;stroke-width:4.23333311;stroke-linecap:round;stroke-linejoin:round;stroke-miterlimit:4;stroke-dasharray:none;filter:url(#filter8960)"
             id="path8979"
             inkscape:connector-curvature="0" />
          <path
             d="m -311.45353,190.33105 h -6.15722 v 32.20368 h -22.70477 V 94.451901 h 32.42164 q 9.33205,0 16.25892,5.855219 6.92688,5.85521 10.67894,16.83374 3.75205,10.97853 3.75205,25.61657 0,13.72316 -3.27102,23.96978 -3.27102,10.24663 -9.42825,16.28482 l 14.14237,39.5227 h -24.24406 z m 11.35239,-47.57362 q 0,-7.13605 -2.30896,-10.97853 -2.30896,-4.02546 -6.92688,-4.02546 h -8.27377 v 30.00797 h 8.27377 q 4.61792,0 6.92688,-3.84248 2.30896,-4.02546 2.30896,-11.1615 z"
             style="font-style:normal;font-variant:normal;font-weight:900;font-stretch:normal;font-size:132.67800903px;line-height:1.25;font-family:'Montserrat Black';-inkscape-font-specification:'Montserrat Black, Heavy';font-variant-ligatures:normal;font-variant-caps:normal;font-variant-numeric:normal;font-feature-settings:normal;text-align:start;letter-spacing:31.09640503px;word-spacing:0px;writing-mode:lr-tb;text-anchor:start;fill:#0000ff;fill-opacity:1;stroke:#ffffff;stroke-width:4.23333311;stroke-linecap:round;stroke-linejoin:round;stroke-miterlimit:4;stroke-dasharray:none"
             id="path8974"
             inkscape:connector-curvature="0" />
          <path
             d="m -311.45353,190.33105 h -6.15722 v 32.20368 h -22.70477 V 94.451901 h 32.42164 q 9.33205,0 16.25892,5.855219 6.92688,5.85521 10.67894,16.83374 3.75205,10.97853 3.75205,25.61657 0,13.72316 -3.27102,23.96978 -3.27102,10.24663 -9.42825,16.28482 l 14.14237,39.5227 h -24.24406 z m 11.35239,-47.57362 q 0,-7.13605 -2.30896,-10.97853 -2.30896,-4.02546 -6.92688,-4.02546 h -8.27377 v 30.00797 h 8.27377 q 4.61792,0 6.92688,-3.84248 2.30896,-4.02546 2.30896,-11.1615 z"
             style="font-style:normal;font-variant:normal;font-weight:900;font-stretch:normal;font-size:132.67800903px;line-height:1.25;font-family:'Montserrat Black';-inkscape-font-specification:'Montserrat Black, Heavy';font-variant-ligatures:normal;font-variant-caps:normal;font-variant-numeric:normal;font-feature-settings:normal;text-align:start;letter-spacing:31.09640503px;word-spacing:0px;writing-mode:lr-tb;text-anchor:start;fill:#0000ff;fill-opacity:1;stroke:#0000ff;stroke-width:2.11666656;stroke-linecap:round;stroke-linejoin:round;stroke-miterlimit:4;stroke-dasharray:none"
             id="path8969"
             inkscape:connector-curvature="0" />
          <path
             d="m -311.45353,190.33105 h -6.15722 v 32.20368 h -22.70477 V 94.451901 h 32.42164 q 9.33205,0 16.25892,5.855219 6.92688,5.85521 10.67894,16.83374 3.75205,10.97853 3.75205,25.61657 0,13.72316 -3.27102,23.96978 -3.27102,10.24663 -9.42825,16.28482 l 14.14237,39.5227 h -24.24406 z m 11.35239,-47.57362 q 0,-7.13605 -2.30896,-10.97853 -2.30896,-4.02546 -6.92688,-4.02546 h -8.27377 v 30.00797 h 8.27377 q 4.61792,0 6.92688,-3.84248 2.30896,-4.02546 2.30896,-11.1615 z"
             style="font-style:normal;font-variant:normal;font-weight:900;font-stretch:normal;font-size:132.67800903px;line-height:1.25;font-family:'Montserrat Black';-inkscape-font-specification:'Montserrat Black, Heavy';font-variant-ligatures:normal;font-variant-caps:normal;font-variant-numeric:normal;font-feature-settings:normal;text-align:start;letter-spacing:31.09640503px;word-spacing:0px;writing-mode:lr-tb;text-anchor:start;fill:#0000ff;fill-opacity:1;stroke:none;stroke-width:3.1096406"
             id="path8964"
             inkscape:connector-curvature="0" />
        </g>
      </g>
    </g>
    <path
       style="color:#000000;font-style:normal;font-variant:normal;font-weight:normal;font-stretch:normal;font-size:medium;line-height:normal;font-family:sans-serif;font-variant-ligatures:normal;font-variant-position:normal;font-variant-caps:normal;font-variant-numeric:normal;font-variant-alternates:normal;font-feature-settings:normal;text-indent:0;text-align:start;text-decoration:none;text-decoration-line:none;text-decoration-style:solid;text-decoration-color:#000000;letter-spacing:normal;word-spacing:normal;text-transform:none;writing-mode:lr-tb;direction:ltr;text-orientation:mixed;dominant-baseline:auto;baseline-shift:baseline;text-anchor:start;white-space:normal;shape-padding:0;clip-rule:nonzero;display:inline;overflow:visible;visibility:visible;opacity:0.9;isolation:auto;mix-blend-mode:normal;color-interpolation:sRGB;color-interpolation-filters:linearRGB;solid-color:#000000;solid-opacity:1;vector-effect:none;fill:#000000;fill-opacity:1;fill-rule:nonzero;stroke:none;stroke-width:4.23333311;stroke-linecap:round;stroke-linejoin:round;stroke-miterlimit:4;stroke-dasharray:none;stroke-dashoffset:0;stroke-opacity:1;color-rendering:auto;image-rendering:auto;shape-rendering:auto;text-rendering:auto;enable-background:accumulate"
       d="m 296.54754,290.99139 c -12.11737,0 -23.81985,1.6752 -34.85472,4.78834 -5.13612,-0.62469 -10.37302,-0.94878 -15.69,-0.94878 -22.40106,0 -43.38691,5.72126 -61.34923,15.68173 -44.86168,3.63416 -82.72538,30.26014 -99.770661,67.1866 -26.80652,20.44902 -43.93478,51.48716 -43.93478,86.27846 0,6.49038 0.59826,12.84918 1.74201,19.03398 -4.44182,11.65129 -6.86108,24.19471 -6.86108,37.26852 0,20.62886 6.02252,39.93783 16.51269,56.50302 3.97998,26.52409 17.99175,50.04361 38.33616,67.16488 12.411651,20.40586 31.533651,36.80828 54.559981,46.63075 21.61477,19.48569 51.07854,31.473 83.50705,31.473 0.60335,0 1.20534,-0.006 1.80661,-0.0139 13.73658,5.09302 28.7164,7.89461 44.38902,7.89461 23.30358,0 45.07626,-6.19016 63.50568,-16.90492 48.65845,-1.53463 90.0576,-30.05836 107.2844,-70.04221 33.85604,-19.70871 56.41258,-54.69258 56.41258,-94.61905 0,-1.63566 -0.0398,-3.26247 -0.11472,-4.88085 6.33209,-13.58048 9.84539,-28.56464 9.84539,-44.31873 0,-21.65889 -6.63827,-41.86303 -18.11672,-58.96384 -2.30515,-37.30798 -24.32546,-69.66788 -56.47614,-88.27523 -17.97492,-22.17638 -44.6362,-37.91074 -75.24191,-42.85066 -18.84284,-11.43909 -41.3453,-18.08572 -65.49161,-18.08572 z m 0,4.23437 c 19.67149,0 38.17938,4.54266 54.38324,12.55169 -3.14384,-0.23005 -6.32107,-0.34882 -9.52758,-0.34882 -11.17645,0 -22.00007,1.42578 -32.27245,4.08968 -11.14893,-6.42869 -23.51086,-11.2046 -36.68768,-13.96349 7.77316,-1.52505 15.83567,-2.32906 24.10447,-2.32906 z m -50.54472,3.83749 c 1.80047,0 3.59062,0.0405 5.37073,0.11576 -9.68466,3.66501 -18.74046,8.47345 -26.97406,14.24512 -9.35443,-2.17845 -19.14051,-3.33726 -29.21321,-3.33726 -0.11989,0 -0.23934,0.002 -0.35915,0.002 15.42164,-7.05733 32.79061,-11.02568 51.17569,-11.02568 z m 16.00367,1.01751 c 14.89297,1.90732 28.872,6.4389 41.38249,13.07259 -13.55076,4.20954 -26.03142,10.60644 -36.95175,18.74356 -10.92985,-7.51461 -23.27672,-13.34389 -36.59466,-17.07751 9.71926,-6.36533 20.54586,-11.37773 32.16392,-14.73864 z m 79.39671,11.58017 c 6.53814,0 12.94758,0.50264 19.18694,1.46658 10.10555,6.23478 19.09011,13.90257 26.61957,22.68957 -4.34422,-0.44367 -8.75699,-0.67334 -13.22659,-0.67334 -10.85349,0 -21.37509,1.34253 -31.38155,3.85971 -0.2727,0.0686 -0.54403,0.13998 -0.81597,0.21032 -7.71425,-9.49158 -17.01982,-17.8008 -27.54715,-24.58248 8.70997,-1.94042 17.80544,-2.97036 27.16475,-2.97036 z m -146.21692,2.65824 c 8.4734,0 16.73104,0.84331 24.6817,2.44274 -13.48068,10.42821 -24.47035,23.55078 -32.00425,38.485 -8.66232,-1.85 -17.67966,-2.82774 -26.93893,-2.82774 -5.27665,0 -10.47453,0.3184 -15.57321,0.9338 9.73746,-15.86168 23.70998,-29.20169 40.50244,-38.6886 3.0782,-0.22737 6.19008,-0.3452 9.33225,-0.3452 z m 176.05541,0.93948 c 21.68233,5.34383 40.84575,16.37237 55.54027,31.25286 -0.27651,-0.12627 -0.55275,-0.2534 -0.83044,-0.37775 -10.17216,-4.55481 -21.1385,-7.81231 -32.64865,-9.54722 -6.31009,-7.98589 -13.73572,-15.16081 -22.06118,-21.32789 z m -195.22478,0.524 c -14.94614,9.99888 -27.32463,23.1155 -36.02519,38.33203 -17.50408,2.86756 -33.71032,9.26812 -47.730421,18.38389 16.212301,-29.1465 46.400321,-50.53607 82.408921,-56.50095 0.44799,-0.0742 0.89691,-0.14556 1.34669,-0.21497 z m 132.51543,0.26406 c 11.03017,6.57731 20.77224,14.84445 28.80702,24.4042 -15.094,4.50064 -28.89433,11.70474 -40.73446,21.00492 -0.0851,0.0669 -0.1693,0.13495 -0.25425,0.20205 -7.11898,-10.35417 -16.02585,-19.54069 -26.31209,-27.18645 11.31943,-8.23038 24.33806,-14.54756 38.49378,-18.42472 z m -83.26675,1.92908 c 13.73883,3.41571 26.46097,9.11581 37.67056,16.63154 -13.30876,10.70833 -24.06148,24.09442 -31.28646,39.26118 -11.7481,-7.9859 -25.11195,-14.03332 -39.54384,-17.63872 7.75354,-15.01085 19.16023,-28.09395 33.15974,-38.254 z m 41.27241,19.14509 c 10.4358,7.58603 19.42681,16.79819 26.53533,27.22211 -13.12576,11.15263 -23.58062,24.98184 -30.3599,40.56445 -7.36107,-10.93934 -16.70468,-20.6046 -27.55904,-28.56415 7.11391,-15.2254 17.92193,-28.62561 31.38361,-39.22241 z m 107.44512,2.25722 c 5.7934,0 11.48552,0.39567 17.04806,1.156 10.74683,14.05836 17.93346,30.61701 20.3543,48.54175 -6.34419,-0.96489 -12.85411,-1.46761 -19.4882,-1.46761 -9.32772,0 -18.41012,0.9919 -27.13117,2.86856 -2.69151,-17.52001 -9.7597,-33.72052 -20.13882,-47.61932 9.37176,-2.26935 19.20864,-3.47938 29.35583,-3.47938 z m 22.98361,2.11409 c 13.51349,2.52137 26.16755,7.22285 37.52225,13.69012 11.40837,14.29256 19.07672,31.30168 21.67723,49.77991 -12.16558,-7.19176 -25.81376,-12.40205 -40.41562,-15.1443 -2.16322,-17.70183 -8.78248,-34.13873 -18.78386,-48.32573 z m -56.75674,2.52284 c 10.60233,13.75 17.78981,29.91484 20.42098,47.42501 -17.05303,4.2728 -32.61172,11.95655 -45.77292,22.21829 -1.33964,-17.60533 -7.07207,-34.07453 -16.18041,-48.47249 11.96718,-9.51564 26.05825,-16.80431 41.53235,-21.17081 z M 160.9248,356.65147 c 8.60731,0 16.99148,0.87076 25.05791,2.51975 -6.05905,13.33063 -9.41132,27.98742 -9.41132,43.37874 0,2.65272 0.10182,5.28286 0.29766,7.88892 -6.84035,-1.12786 -13.87893,-1.7172 -21.06331,-1.7172 -8.72251,0 -17.23033,0.868 -25.42894,2.51509 -0.077,-1.60706 -0.11834,-3.22271 -0.11834,-4.84725 0,-17.41041 4.47296,-33.86039 12.41371,-48.411 5.94458,-0.87206 12.0402,-1.32705 18.25263,-1.32705 z m -23.4921,2.20917 c -7.31467,14.41446 -11.40861,30.52285 -11.40861,47.52888 0,1.93363 0.0531,3.85575 0.15761,5.76502 -17.09266,4.04065 -32.730041,11.4961 -46.016311,21.54287 -0.4768,-3.95685 -0.72295,-7.97798 -0.72295,-12.05197 0,-0.46259 0.003,-0.92423 0.009,-1.38545 0.19255,-14.10945 3.32319,-27.56805 8.85062,-39.87147 14.039881,-10.50235 30.786231,-18.02533 49.130341,-21.52788 z m 52.77094,1.25109 c 14.54475,3.51213 27.96811,9.57925 39.68492,17.65163 -5.45806,12.74925 -8.46202,26.65723 -8.46202,41.22384 0,2.72064 0.10726,5.41795 0.31316,8.08943 -12.1619,-7.45431 -25.86515,-12.90511 -40.56135,-15.85071 -0.24692,-2.86218 -0.37466,-5.75534 -0.37466,-8.67596 0,-15.06842 3.35092,-29.41734 9.39995,-42.43823 z m 253.90181,1.18597 c 24.05747,17.01053 40.69517,42.56053 44.69184,71.74756 0.0186,0.1358 0.0352,0.27229 0.0532,0.40824 -7.77916,-9.90253 -17.27034,-18.56587 -28.06392,-25.61807 -1.80567,-16.91399 -7.67424,-32.70965 -16.68115,-46.53773 z m -148.7103,6.5996 c 9.08668,14.54199 14.59584,31.24076 15.42232,49.05643 -13.0094,11.09676 -23.38207,24.82835 -30.13305,40.29108 -1.11254,-17.37625 -6.50231,-33.6736 -15.19959,-48.00172 6.38643,-15.90429 16.72217,-30.03014 29.91032,-41.34579 z m -61.98381,12.39149 c 10.93036,8.15167 20.22623,18.10657 27.36681,29.37495 -4.38615,11.58614 -6.77323,24.05096 -6.77323,37.03857 0,3.37284 0.16078,6.71002 0.47594,10.0061 0.004,0.0419 0.009,0.0837 0.0129,0.12558 -7.72119,-10.36011 -17.27983,-19.4442 -28.23394,-26.84694 -0.39705,-3.61684 -0.601,-7.28659 -0.601,-10.99985 0,-13.63941 2.74593,-26.68903 7.7525,-38.69841 z m -151.905461,5.60276 c -4.08191,11.22103 -6.29626,23.24496 -6.29626,35.75389 0,5.12176 0.37333,10.1615 1.09193,15.09882 -12.95228,10.66424 -23.41137,23.89306 -30.45034,38.83587 -0.44189,-3.812 -0.67076,-7.68237 -0.67076,-11.60239 0,-30.75004 13.94881,-58.50644 36.32543,-78.08619 z m 310.391401,5.94951 c 6.8151,0 13.49008,0.54663 19.97861,1.59215 0.27266,3.0058 0.41393,6.04609 0.41393,9.11675 0,12.76241 -2.40416,25.00825 -6.81456,36.36884 -7.5422,-1.38245 -15.33503,-2.10943 -23.30814,-2.10943 -7.25091,0 -14.35352,0.59987 -21.25348,1.74821 3.29376,-10.18334 5.06583,-20.98149 5.06583,-32.16806 0,-3.95498 -0.22302,-7.86088 -0.65474,-11.70885 8.5298,-1.85604 17.42515,-2.83961 26.57255,-2.83961 z m 24.29514,2.36678 c 14.77146,2.92238 28.49102,8.4542 40.5753,16.04966 0.24999,2.87972 0.37983,5.79078 0.37983,8.7297 0,13.12498 -2.5431,25.70395 -7.19595,37.33519 -12.03036,-7.67483 -25.63617,-13.36308 -40.2673,-16.55919 4.42838,-11.63567 6.83989,-24.16012 6.83989,-37.21324 0,-2.80632 -0.11281,-5.58822 -0.33177,-8.34212 z m -55.01989,1.4521 c 0.3778,3.5296 -28.09061,28.0547 -28.09061,31.67576 0,11.53039 26.70183,1.69381 23.07076,12.10917 -18.10741,3.72638 -34.68801,11.25996 -48.71278,21.65604 4.98976,-12.26292 7.72304,-25.55978 7.72304,-39.45547 0,-0.94013 -0.0129,-1.8772 -0.0377,-2.81172 13.04615,-10.72997 28.72998,-18.76804 46.04732,-23.17378 z m -205.36679,17.29611 c 7.34301,0 14.52328,0.63462 21.48292,1.84433 1.50147,12.77959 5.32296,24.90655 11.06496,36.01124 -5.61606,-0.75042 -11.35621,-1.1405 -17.19275,-1.1405 -10.14726,0 -20.00321,1.1755 -29.42043,3.38532 -6.00919,-11.52716 -9.85875,-24.20045 -11.06909,-37.56515 8.08994,-1.65907 16.49991,-2.53524 25.13439,-2.53524 z m 305.41494,0.24339 c 11.20674,7.78301 20.8361,17.40678 28.37346,28.3838 0.0859,1.69656 0.13126,3.40295 0.13126,5.11907 0,13.89076 -2.84605,27.17064 -8.02948,39.36193 -7.64879,-10.53944 -17.18243,-19.79575 -28.14712,-27.35543 5.05881,-12.33647 7.83105,-25.72529 7.83105,-39.72161 0,-1.94132 -0.0538,-3.87099 -0.15917,-5.78776 z m -197.63392,1.16376 c 8.35661,14.8443 13.08034,31.72253 13.08034,49.61454 0,1.44958 -0.0321,2.89216 -0.0935,4.3279 -2.42499,7.84643 -3.94823,16.04874 -4.45916,24.50444 -2.71438,-9.96405 -6.86891,-19.39224 -12.24783,-28.08148 -1.06899,-5.86207 -1.62729,-11.88407 -1.62729,-18.02629 0,-0.46259 0.003,-0.92475 0.009,-1.38597 0.147,-10.77202 2.00745,-21.16424 5.33817,-30.95314 z m -81.92834,1.27744 c 14.83651,3.1351 28.57919,8.91157 40.62957,16.76435 1.48995,11.55493 4.87841,22.56384 9.86761,32.75045 -11.72783,-6.45262 -24.7353,-11.10049 -38.57646,-13.53612 -6.11939,-11.02324 -10.23899,-23.15406 -11.92072,-35.97868 z m -55.15529,0.78134 c 1.28374,13.39074 5.11406,26.09511 11.0324,37.69744 -15.82438,4.29177 -30.30584,11.53371 -42.700751,21.04781 -6.91478,-11.12807 -11.73681,-23.51228 -13.97486,-36.68871 13.03649,-10.28071 28.566671,-17.9297 45.643211,-22.05654 z m 184.41976,6.04356 c -0.12832,15.89182 -3.97901,30.96931 -10.79159,44.51253 -9.58467,8.35422 -17.69555,18.15551 -23.92671,29.0313 0.0121,-0.38857 0.0253,-0.77673 0.0419,-1.16427 2.54995,-8.24884 4.10287,-16.89115 4.53099,-25.80773 5.63245,-17.89657 39.30526,-84.57867 53.29649,-97.28364 z m -83.87034,13.21573 c 11.56379,8.38572 21.35956,18.76514 28.79153,30.57798 1.55547,8.17691 4.06921,16.04459 7.42849,23.50038 -7.00083,-7.79008 -15.1213,-14.67826 -24.13083,-20.45044 -5.9188,-10.32456 -10.07206,-21.64973 -12.08919,-33.62792 z m 155.11457,5.36092 c 7.40495,0 14.64458,0.64458 21.65914,1.8743 -8.93239,20.39952 -24.43536,37.68217 -44.0893,49.57733 -8.19702,-1.64636 -16.70309,-2.51457 -25.42377,-2.51457 -3.12227,0 -6.21657,0.11148 -9.27954,0.3297 15.43573,-12.57607 27.37894,-28.77426 34.28267,-47.17697 7.38526,-1.36958 15.02574,-2.08979 22.8508,-2.08979 z m -305.050121,0.51883 c 2.52231,13.01146 7.47312,25.23385 14.3955,36.25257 -13.21298,10.91418 -23.81992,24.50168 -30.83326,39.85544 -6.51474,-10.44009 -11.18607,-21.99044 -13.60588,-34.26664 6.3507,-16.10142 16.74276,-30.40213 30.04364,-41.84137 z m 330.960681,2.17816 c 14.66405,3.1061 28.25937,8.79131 40.20581,16.51269 -9.26055,20.60791 -25.24942,37.97248 -45.44115,49.71892 -11.19107,-7.25505 -23.77022,-12.78203 -37.28765,-16.16593 18.93008,-12.39979 33.83986,-29.76318 42.52299,-50.06568 z m -53.69956,0.41289 c -7.57566,18.6927 -20.61395,34.91243 -37.32331,46.97698 -14.32962,1.92223 -27.84813,6.20111 -40.08127,12.40389 0.0819,-0.16502 0.16217,-0.331 0.24495,-0.49557 10.86489,-9.46956 19.83592,-20.79783 26.32242,-33.44344 14.12272,-12.12831 31.51822,-21.03219 50.83721,-25.44186 z m 139.56511,4.3186 c 8.74152,15.10397 13.69839,32.36791 13.69839,50.69613 0,12.3742 -2.26011,24.26318 -6.41769,35.33015 -2.14819,-16.1048 -7.98844,-31.13799 -16.70441,-44.35182 5.84454,-12.83627 9.1768,-26.90433 9.42371,-41.67446 z m -322.78236,5.43274 c 6.7324,0 13.32818,0.53413 19.74247,1.55495 4.8103,8.28343 10.71413,15.93548 17.53071,22.79034 -4.35104,-0.44507 -8.77091,-0.67541 -13.24777,-0.67541 -11.01324,0 -21.68361,1.38422 -31.82183,3.9734 -7.69982,-7.28029 -14.28691,-15.5732 -19.51147,-24.64191 8.75339,-1.96108 17.89736,-3.00137 27.30789,-3.00137 z m 25.28528,2.56678 c 14.37744,2.96741 27.73983,8.41084 39.54333,15.8228 3.44879,5.88156 7.45002,11.44237 11.93881,16.62173 -10.10212,-4.60695 -20.99939,-7.93144 -32.44505,-9.74721 -7.38524,-6.72073 -13.80008,-14.35249 -19.03709,-22.69732 z m -56.86319,1.47174 c 5.12011,9.11521 11.55468,17.48923 19.0686,24.90597 -14.4974,4.30842 -27.80293,11.11149 -39.32835,19.86907 -8.60662,-6.93155 -16.09537,-15.02222 -22.187791,-24.00783 12.258201,-9.46649 26.662681,-16.62971 42.447541,-20.76721 z m 312.2569,4.7041 c 10.96461,7.67485 20.40738,17.11504 27.83758,27.86445 -9.71519,20.13189 -25.92296,36.98755 -46.17134,48.26475 -7.35569,-10.02769 -16.42325,-18.8808 -26.80869,-26.19788 19.90045,-12.02928 35.7372,-29.39652 45.14245,-49.93132 z m -206.59203,16.11065 c 7.45324,5.76384 14.11125,12.3796 19.80137,19.68562 -1.69786,-1.13286 -3.42755,-2.22636 -5.18986,-3.27732 -5.43148,-5.00038 -10.33047,-10.49593 -14.61151,-16.4083 z m -151.412991,2.60036 c 6.11967,8.95834 13.574001,17.04903 22.102011,24.03109 -13.22814,10.82987 -23.873851,24.32703 -30.959351,39.5924 -8.30455,-6.70126 -15.56708,-14.48181 -21.53408,-23.10555 6.6448,-15.63174 17.1334,-29.47246 30.39142,-40.51794 z m 101.351441,0.44855 c 6.27788,0 12.43681,0.4643 18.44074,1.35444 6.90915,6.14527 14.60523,11.52973 22.93245,16.01039 -2.58374,-0.15472 -5.18934,-0.23409 -7.81451,-0.23409 -11.38425,0 -22.40315,1.47764 -32.84554,4.23798 -10.5757,-4.71385 -20.25603,-10.87378 -28.74502,-18.20199 8.97284,-2.06739 18.36145,-3.16673 28.03188,-3.16673 z m 26.87485,2.90576 c 12.70292,2.79763 24.58905,7.53418 35.27743,13.85342 1.91588,1.74961 3.89445,3.4397 5.93246,5.06739 -4.5368,-1.26661 -9.18608,-2.28941 -13.9299,-3.05356 -9.91137,-4.10799 -19.08225,-9.46982 -27.27999,-15.86725 z m -32.26987,20.2458 c 8.154,7.39875 -10.14375,-5.01313 0,0 -12.62016,4.02944 -24.29494,9.96174 -34.62476,17.43046 -11.83024,-4.03922 -22.74735,-9.81762 -32.3944,-17 11.53422,-8.58736 52.46407,3.56978 67.01916,-0.43046 z M 44.460079,490.8717 c 3.00089,11.26926 7.84465,21.85979 14.21463,31.4818 -4.84141,12.10212 -7.48998,25.19884 -7.48998,38.87618 0,1.77091 0.0461,3.53129 0.13385,5.28185 -7.21725,-14.00551 -11.2572,-29.68466 -11.2572,-46.23129 0,-10.19496 1.53358,-20.06053 4.3987,-29.40854 z m 289.853111,3.34037 c 6.70907,0 13.28249,0.53022 19.6758,1.54409 -15.34794,8.14837 -32.90919,13.13118 -51.65783,13.98519 -2.49224,-0.54177 -5.01399,-1.01196 -7.56284,-1.40663 8.51476,-3.52838 16.50859,-7.9516 23.84144,-13.14287 5.13433,-0.64485 10.37585,-0.97978 15.70343,-0.97978 z m 148.05091,0.38654 c 8.92023,14.26776 14.39772,30.61234 15.38458,48.05237 -9.34069,19.52895 -24.7821,35.99778 -44.09756,47.31494 -1.93026,-17.41573 -8.16949,-33.63492 -17.70486,-47.72888 20.04987,-11.26942 36.27713,-27.84263 46.41784,-47.63843 z m -121.89592,2.36109 c 13.84869,2.96276 26.73854,8.229 38.18217,15.33602 -16.52591,8.73422 -35.60591,13.80342 -55.96506,14.00793 -8.75328,-5.57956 -18.33993,-10.10763 -28.54813,-13.38988 16.82578,-2.30176 32.52546,-7.85454 46.33102,-15.95407 z m -52.32962,0.004 c -7.01388,4.14529 -14.54292,7.60943 -22.48028,10.29136 -1.98762,-0.16388 -3.98927,-0.282 -6.00325,-0.3545 8.86368,-4.40965 18.41999,-7.78211 28.48353,-9.93686 z m -79.3936,6.2053 c 6.64445,0 13.15566,0.51976 19.4908,1.51464 2.9775,1.22009 6.01836,2.33038 9.11624,3.32641 -7.77996,1.06423 -15.31918,2.82253 -22.54178,5.20743 -11.29651,-1.00353 -22.11385,-3.51034 -32.21871,-7.30136 8.40174,-1.7974 17.15603,-2.74712 26.15345,-2.74712 z m -33.1649,4.46536 c 9.58386,4.13525 19.84969,7.12904 30.59503,8.79275 -8.02846,3.32694 -15.59369,7.45046 -22.57847,12.2623 -2.28609,0.15196 -4.59034,0.24404 -6.91172,0.2713 -0.49872,0.006 -0.99838,0.009 -1.49862,0.009 -12.19647,0 -23.94519,-1.74711 -34.97564,-4.98264 10.56068,-7.20599 22.49111,-12.79053 35.36942,-16.35249 z m -76.25789,0.42427 c 9.50357,7.22161 20.2169,13.11525 31.8115,17.3762 -13.36843,10.55523 -24.22134,23.78657 -31.59497,38.809 -11.34743,-4.02693 -21.832051,-9.66097 -31.132471,-16.60157 6.9295,-15.32268 17.581521,-28.84421 30.915941,-39.58363 z m 137.85568,4.24573 c -0.61035,0.35955 -1.22369,0.71536 -1.84175,1.06454 h -5.2e-4 c -1.95967,0.14475 -3.93323,0.24389 -5.91953,0.29713 2.5563,-0.53289 5.14405,-0.98835 7.7618,-1.36167 z m 31.55466,1.56993 c 2.58392,0.15475 5.18967,0.2341 7.81503,0.2341 1.82258,0 3.63543,-0.0403 5.43842,-0.11524 11.46781,2.54274 22.26754,6.66608 32.11898,12.10778 -14.11367,-0.81269 -27.53329,-3.96785 -39.81825,-9.04788 -1.81791,-1.10482 -3.66985,-2.16473 -5.55418,-3.17862 z m 113.93878,1.03367 c 10.51794,7.14816 19.68143,15.90313 27.07483,25.87334 -16.52959,8.43971 -35.53087,13.2452 -55.763,13.2452 -0.34718,0 -0.69328,-0.003 -1.03973,-0.006 -6.81931,-8.959 -15.02298,-16.94047 -24.31893,-23.67711 19.65346,-1.08679 38.04784,-6.57948 54.04683,-15.43524 z m -135.4155,1.29088 c -3.29367,10.1832 -5.06533,20.98114 -5.06533,32.16754 0,4.2582 0.25811,8.45979 0.75758,12.59303 -8.96081,20.27936 -24.42327,37.45735 -43.99887,49.29261 -0.24917,-2.87517 -0.37775,-5.78159 -0.37775,-8.71577 0,-16.55011 4.04092,-32.23281 11.26081,-46.24057 15.42942,-10.08485 28.19452,-23.46393 37.10316,-39.04517 0.10673,-0.0175 0.21377,-0.0339 0.3204,-0.0517 z m 4.23385,0.66456 c 0.0383,1.13481 0.0599,2.27348 0.0599,3.41684 0,10.95953 -1.77333,21.53807 -5.06688,31.50246 -0.0383,-1.13463 -0.06,-2.27314 -0.06,-3.41632 0,-10.95952 1.77333,-21.53858 5.06688,-31.50298 z m -36.20089,0.64337 c 3.53008,0.29093 7.1038,0.43976 10.71407,0.43976 0.12007,0 0.23969,-0.002 0.35967,-0.002 -10.35418,4.73837 -21.58561,8.08365 -33.41398,9.77046 6.9741,-4.10838 14.45568,-7.54439 22.34024,-10.20816 z m 46.58061,0.66404 c 1.2552,1.39671 2.54622,2.7646 3.87212,4.10207 12.76989,14.85762 21.37231,32.92512 24.18354,52.6769 -7.53898,-7.01302 -14.03599,-14.9873 -19.26136,-23.70606 -1.10988,-11.63248 -4.14201,-22.74744 -8.7943,-33.07291 z m -21.53253,0.80822 c -6.74999,10.47213 -15.3694,19.78977 -25.43566,27.5549 6.74998,-10.47195 15.36952,-19.78989 25.43566,-27.5549 z m 28.32385,0.22272 c 1.23856,0.56485 2.48866,1.11123 3.75068,1.63711 8.48634,5.19173 16.18972,11.3913 22.91333,18.4144 -9.85027,-5.3783 -18.7628,-12.07033 -26.46092,-19.81431 -0.068,-0.0789 -0.1349,-0.15851 -0.20309,-0.2372 z m -35.32032,0.0315 c -10.99142,9.35267 -20.10622,20.58349 -26.75341,33.14992 -16.02175,10.25081 -34.97507,16.85367 -55.47672,18.50843 7.99083,-15.00227 19.65208,-28.02618 33.90387,-38.05918 0.30291,-0.0229 9.02067,68.7288 9.32295,68.7038 8.0852,-0.66775 7.5277,-70.85571 15.07557,-72.94285 8.39594,-2.32164 16.40846,-5.47673 23.92774,-9.36015 z m 25.26667,2.01383 c 2.48531,5.73959 4.45151,11.72332 5.84461,17.90174 -2.48529,-5.7395 -4.45153,-11.7234 -5.84461,-17.90174 z m 28.26908,4.60127 c 10.9386,3.0539 22.52982,4.69532 34.52709,4.69532 0.0293,0 0.0585,-5e-4 0.0879,-5.3e-4 9.91298,6.46981 18.67786,14.34542 25.96069,23.31331 -15.07757,-0.77639 -29.37651,-4.22222 -42.35917,-9.83713 C 319.7597,537.35 313.64498,531.25445 306.87616,525.84835 Z M 61.592879,526.5496 c 6.10018,8.35282 13.38674,15.89434 21.63228,22.41722 -5.1746,12.45846 -8.01554,25.99923 -8.01554,40.16293 0,2.85964 0.11689,5.69407 0.34417,8.49924 -7.3981,-6.60268 -13.84912,-14.10883 -19.1487,-22.32629 -0.65055,-4.60634 -0.98806,-9.30335 -0.98806,-14.07305 0,-12.1321 2.17261,-23.79805 6.17585,-34.68005 z m 213.995211,0.0884 c 2.49035,9.14134 6.19416,17.83129 10.94249,25.91367 0.24703,2.86285 0.37465,5.7567 0.37465,8.67802 0,13.07729 -2.52414,25.61222 -7.14478,37.20806 -6.41157,-11.25635 -10.72595,-23.69566 -12.46849,-36.86802 4.67491,-10.8998 7.55383,-22.64838 8.29613,-34.93173 z m -119.68985,0.43822 c 12.31478,3.97001 25.5343,6.1278 39.28804,6.1278 0.51684,0 1.03292,-0.003 1.54823,-0.009 0.25377,-0.003 0.50676,-0.009 0.76016,-0.0134 -13.16748,10.35849 -23.90651,23.30834 -31.29939,38.00854 -1.74709,0.0725 -3.5038,0.11162 -5.27048,0.11162 -13.0728,0 -25.63168,-2.00644 -37.34242,-5.70251 7.47709,-15.0404 18.5955,-28.20741 32.31586,-38.52322 z m 143.77676,7.20267 c 6.99971,5.14151 14.62912,9.57244 22.7614,13.17749 11.12267,14.1954 18.58291,31.01314 21.10465,49.25539 -10.57738,-4.5138 -20.29072,-10.46232 -28.85302,-17.5762 -1.54715,-16.20176 -6.82121,-31.39964 -15.01303,-44.85669 z m 132.53815,9.97198 c 9.61966,14.11129 15.78783,30.44267 17.41289,47.97021 -16.34989,8.73781 -35.22814,13.87583 -55.38679,14.24617 -2.01215,-17.63078 -8.43963,-34.02828 -18.23248,-48.22394 20.36135,-0.31377 39.50465,-5.35189 56.20638,-13.99244 z m -102.32553,6.22495 c 12.72729,4.68239 26.51593,7.39844 40.92928,7.74629 10.28028,14.06673 17.05209,30.51241 19.16215,48.25288 -14.83334,-0.22315 -28.97944,-3.02712 -41.94215,-7.94941 -2.01493,-17.56097 -8.41106,-33.89651 -18.14928,-48.04976 z m 167.97217,1.04749 c -1.09552,35.16127 -20.42802,66.11874 -49.57785,84.95913 3.89681,-10.98989 6.0079,-22.73652 6.0079,-34.94619 0,-2.33265 -0.0782,-4.64844 -0.22996,-6.94531 18.43541,-10.40733 33.62353,-25.30523 43.79991,-43.06763 z m -411.151641,0.0971 c 9.33016,6.83971 19.776611,12.41779 31.039441,16.46152 -5.78556,13.07169 -8.97929,27.39218 -8.97929,42.41292 0,2.69375 0.10507,5.3648 0.30696,8.01037 -10.543701,-4.31699 -20.257351,-10.04962 -28.863361,-16.93799 -0.50783,-4.08104 -0.76946,-8.23116 -0.76946,-12.43748 0,-13.19062 2.56837,-25.82947 7.26571,-37.50934 z m 136.520351,7.69876 c -5.73082,13.01856 -8.89145,27.27143 -8.89145,42.21705 0,3.72769 0.19832,7.41169 0.5824,11.04482 -16.27096,8.97729 -35.12569,14.36023 -55.30258,14.96446 -0.27594,-3.02363 -0.41858,-6.08224 -0.41858,-9.17154 0,-15.31789 3.46154,-29.89262 9.70122,-43.08419 19.79493,-1.20992 38.29341,-6.88999 54.32899,-15.9706 z m 67.89766,0.40153 c 5.51076,7.90954 12.06882,15.12787 19.49029,21.48705 0.20582,2.61607 0.31212,5.25762 0.31212,7.922 0,13.36016 -2.63361,26.15488 -7.44657,37.95996 -8.19695,-7.04927 -15.28969,-15.18505 -21.01216,-24.15977 5.58816,-12.87881 8.66769,-26.95189 8.66769,-41.70029 0,-0.50382 -0.004,-1.00674 -0.0114,-1.50895 z m -27.0185,8.60981 c 2.42748,12.49005 7.09205,24.25271 13.5909,34.92034 -9.34954,20.36324 -25.28944,37.50683 -45.35434,49.11175 -6.63295,-11.4232 -11.09834,-24.08595 -12.88965,-37.51297 19.22224,-11.21079 34.79395,-27.34876 44.65309,-46.51912 z m -142.34067,1.11776 c 12.27763,3.94306 25.45268,6.08594 39.15781,6.08594 1.07914,0 2.1548,-0.0144 3.2272,-0.0408 -5.91722,13.19744 -9.18807,27.6805 -9.18807,42.88057 0,3.10774 0.13868,6.18487 0.40669,9.22787 -14.79279,-0.0504 -28.92273,-2.66763 -41.90183,-7.39645 -0.30935,-3.19881 -0.46767,-6.43766 -0.46767,-9.71053 0,-14.53359 3.11718,-28.39743 8.76587,-41.04658 z m 193.30913,15.39647 c 8.71212,6.7604 18.46814,12.39414 29.00857,16.65997 0.26514,2.96468 0.40256,5.96252 0.40256,8.99014 0,12.96369 -2.47865,25.39553 -7.02283,36.90681 -11.19673,-4.34832 -21.49506,-10.28073 -30.57281,-17.49404 5.33768,-12.62718 8.27133,-26.3812 8.27133,-40.77787 0,-1.43492 -0.0291,-2.86332 -0.0868,-4.28501 z m -256.724381,0.50438 c 5.21554,6.73917 11.21741,12.91577 17.88263,18.4118 1.4192,10.07144 4.28199,19.71812 8.39018,28.75481 -12.66581,-13.21435 -21.861,-29.34745 -26.27281,-47.16661 z m 391.593151,11.46027 c 0.0733,1.56739 0.11265,3.14288 0.11265,4.72683 0,13.57133 -2.71848,26.55882 -7.67757,38.5186 -15.95384,9.02634 -34.45554,14.57394 -54.29021,15.49932 4.42034,-11.6263 6.82697,-24.13948 6.82697,-37.18018 0,-2.58135 -0.0966,-5.14133 -0.28215,-7.67861 20.02113,-0.41759 38.84704,-5.40361 55.31031,-13.88596 z m -101.47804,6.37272 c 13.03165,4.71078 27.16112,7.36532 41.92509,7.53444 0.19232,2.52963 0.29249,5.08278 0.29249,7.65741 0,13.11561 -2.5391,25.68612 -7.18561,37.31038 -0.44347,0.005 -0.88703,0.008 -1.3317,0.008 -14.34335,0 -28.06797,-2.41578 -40.7324,-6.82853 4.71317,-11.96017 7.28689,-24.88252 7.28689,-38.36871 0,-2.45721 -0.0865,-4.89534 -0.25476,-7.31274 z m -68.08267,4.26384 c 5.9172,8.79161 13.11573,16.75977 21.34909,23.68124 -9.41574,20.52246 -25.52549,37.7752 -45.80444,49.38821 -8.36568,-7.1442 -15.59182,-15.41552 -21.3987,-24.55407 19.96232,-11.57089 36.0121,-28.44644 45.85405,-48.51538 z m -199.232281,0.15502 c 8.5861,6.35461 18.12784,11.63699 28.390511,15.63108 1.4816,12.11901 5.05217,23.64494 10.36629,34.26201 -9.46139,-4.33771 -18.18742,-9.83993 -25.964301,-16.30235 -6.15919,-10.28092 -10.54907,-21.59601 -12.7925,-33.59074 z m 134.338571,9.46404 c 2.00055,13.3544 6.54517,25.94687 13.1594,37.34602 -16.54077,8.79105 -35.6546,13.90557 -56.05653,14.13454 -6.41212,-11.22852 -10.73705,-23.63694 -12.50104,-36.77811 20.10747,-0.65781 38.97195,-5.92355 55.39817,-14.70245 z m -101.45634,7.81606 c 13.01425,4.49815 27.0887,6.95769 41.77161,6.95769 0.009,0 0.0172,3e-5 0.0258,0 1.68912,13.05267 5.80165,25.40733 11.90625,36.66702 -14.74786,-0.39648 -28.79535,-3.34441 -41.65016,-8.38552 -6.08205,-10.80024 -10.23894,-22.6777 -12.05353,-35.23919 z m 191.08704,8.98911 c 9.1741,7.15397 19.51359,13.05494 30.71234,17.42115 -9.11982,20.57035 -24.93141,37.94162 -44.93937,49.77014 -11.5432,-4.33181 -22.15615,-10.33886 -31.49162,-17.69557 20.05408,-11.84151 36.08395,-29.06446 45.71865,-49.49569 z m 134.38507,12.50156 c -16.76663,33.78185 -51.90108,58.12637 -93.62063,61.96055 17.91987,-12.23936 32.05764,-28.99624 40.458,-48.47558 19.19799,-0.61193 37.26548,-5.42425 53.16263,-13.48497 z m -338.20725,5.54591 c 6.78955,4.53006 14.10653,8.4183 21.84879,11.56727 3.73479,6.41844 8.12578,12.45753 13.09016,18.03921 -13.73274,-7.54838 -25.63045,-17.65467 -34.93895,-29.60648 z m 238.50792,0.84595 c 13.03819,4.5793 27.15374,7.10515 41.88685,7.15822 -9.14021,20.17641 -24.73783,37.22487 -44.41176,48.90606 -0.98644,0.023 -1.9763,0.0346 -2.96881,0.0346 -13.42448,0 -26.3065,-2.11651 -38.285,-6.0053 19.4084,-12.24818 34.76469,-29.64578 43.77872,-50.09355 z m -108.9706,5.25447 c 5.7799,9.13172 12.9176,17.429 21.15322,24.65483 -16.68081,8.72627 -35.93844,13.72777 -56.472,13.78106 -7.94826,-6.95566 -14.8336,-14.94227 -20.40703,-23.72932 20.22977,-0.60957 39.21011,-5.88195 55.72581,-14.70657 z m -101.24551,7.88064 c 12.66758,4.35406 26.33602,6.77537 40.58925,6.88176 5.1873,8.61364 11.56757,16.52132 18.93115,23.52982 -14.76868,-0.70692 -28.79661,-3.97606 -41.58093,-9.33585 -6.88278,-6.28632 -12.91961,-13.36466 -17.93947,-21.07573 z m 125.86467,19.69958 c 9.12028,7.40224 19.45308,13.54275 30.68237,18.12861 -16.23049,8.60724 -34.9337,13.67536 -54.89691,14.06631 -11.23806,-4.24905 -21.58897,-10.08856 -30.73198,-17.21496 19.95812,-0.81166 38.66518,-6.16455 54.94652,-14.97996 z m -98.03071,9.44335 c 11.51311,3.54996 23.79453,5.52206 36.54661,5.63996 7.77219,6.61294 16.48217,12.28627 25.9209,16.82843 -23.48958,-1.64457 -44.99891,-9.77982 -62.46751,-22.46839 z m 133.86625,10.6562 c 11.96954,4.27984 24.85805,6.82757 38.30826,7.3117 -16.26971,8.09398 -34.8756,12.68863 -54.65868,12.68863 -11.36866,0 -22.34846,-1.51813 -32.71997,-4.34444 17.8201,-1.8548 34.47132,-7.34462 49.07039,-15.65589 z"
       id="path9037"
       inkscape:connector-curvature="0"
       sodipodi:nodetypes="scsccscscccscsccscscccsscsccscccsccccccccsccscccssccsccsccccccccccccccccccccccccccsccsccsccccccccccscscscscscsccsccccccsccsccccccccccccccscccscccsccscscscscscsccsccsccsccscccsccsccsccsccsccscccscccccccccccccccccccccccccsccsccscccccccccccccccccscccsccsccsccccccccccccccccccccccccsccsccsccccccccccccscscsccccsccccccccccccccsccccsccccsccccccccccccccscccccccscccccsccscccccscscccsccccccccccccccccccccccsccccccscccccccsccscccsccccscccscccccccccccccccccccccsccccsccsccsccsccccsccsccccccccscsccsccccsccscccccccsccsccccscscsccccccccccccccccccsccccccccccccccccccccccsccccccccccccccccccccccccscc" />
  </g>
</svg>
