<?xml version="1.0" encoding="UTF-8" standalone="no"?>
<!-- Created with Inkscape (http://www.inkscape.org/) -->

<svg
   xmlns:dc="http://purl.org/dc/elements/1.1/"
   xmlns:cc="http://creativecommons.org/ns#"
   xmlns:rdf="http://www.w3.org/1999/02/22-rdf-syntax-ns#"
   xmlns:svg="http://www.w3.org/2000/svg"
   xmlns="http://www.w3.org/2000/svg"
   xmlns:sodipodi="http://sodipodi.sourceforge.net/DTD/sodipodi-0.dtd"
   xmlns:inkscape="http://www.inkscape.org/namespaces/inkscape"
   width="210mm"
   height="297mm"
   viewBox="0 0 210 297"
   version="1.1"
   id="svg825"
   sodipodi:docname="NEWLOGO.svg"
   inkscape:version="0.92.4 (5da689c313, 2019-01-14)">
  <defs
     id="defs819" />
  <sodipodi:namedview
     id="base"
     pagecolor="#ffffff"
     bordercolor="#666666"
     borderopacity="1.0"
     inkscape:pageopacity="0.0"
     inkscape:pageshadow="2"
     inkscape:zoom="0.55"
     inkscape:cx="-160.62333"
     inkscape:cy="1888.4832"
     inkscape:document-units="px"
     inkscape:current-layer="layer1"
     showgrid="false"
     showborder="false"
     inkscape:window-width="1366"
     inkscape:window-height="705"
     inkscape:window-x="-8"
     inkscape:window-y="-8"
     inkscape:window-maximized="1" />
  <metadata
     id="metadata822">
    <rdf:RDF>
      <cc:Work
         rdf:about="">
        <dc:format>image/svg+xml</dc:format>
        <dc:type
           rdf:resource="http://purl.org/dc/dcmitype/StillImage" />
        <dc:title></dc:title>
      </cc:Work>
    </rdf:RDF>
  </metadata>
  <g
     inkscape:label="Layer 1"
     inkscape:groupmode="layer"
     id="layer1">
    <path
       style="font-style:normal;font-variant:normal;font-weight:900;font-stretch:normal;font-size:212.75631714px;line-height:1.25;font-family:'Montserrat Black';-inkscape-font-specification:'Montserrat Black, Heavy';font-variant-ligatures:normal;font-variant-caps:normal;font-variant-numeric:normal;font-feature-settings:normal;text-align:start;letter-spacing:1808.19165039px;word-spacing:0px;writing-mode:lr-tb;text-anchor:start;opacity:0.91000001;fill:#002255;fill-opacity:1;stroke:none;stroke-width:107.60810852"
       d="m -106.72019,-267.35904 c -1.01642,0.27273 -2.04459,0.57013 -3.0846,0.89174 l -43.35925,13.40646 0.27608,1.07381 -18.13761,6.06998 a 6.1136088,25.533308 74.945964 0 0 19.07397,-2.4299 l 0.25612,0.99606 -28.42291,9.51243 a 6.1136088,25.533308 74.945964 0 0 26.91869,-4.70795 6.1136088,25.533308 74.945964 0 0 2.5132,-0.88137 l 0.56426,2.195 -19.10931,6.39533 a 6.1136088,25.533308 74.945964 0 0 20.06451,-2.68166 l 0.34193,1.32934 -24.89243,8.3307 a 6.1136088,25.533308 74.945964 0 0 25.9075,-4.38376 l 0.72565,2.82228 -27.53887,9.21636 a 6.1136088,25.533308 74.945964 0 0 26.91877,-4.70765 6.1136088,25.533308 74.945964 0 0 1.63298,-0.57106 l 0.24948,0.97014 -19.8707,6.65012 a 6.1136088,25.533308 74.945964 0 0 20.83808,-2.88875 l 0.6875,2.6733 -24.43064,8.15203 a 6.0231642,25.533308 74.945964 0 0 25.42913,-4.2691 l 0.0341,0.13253 -16.76582,5.61123 a 6.1136088,25.533308 74.945964 0 0 17.67141,-2.09025 l 1.03896,4.03926 -25.79229,8.63194 a 6.1136088,25.533308 74.945964 0 0 26.81026,-4.67306 l 0.42423,1.64955 -30.08295,10.06814 a 6.1136088,25.533308 74.945964 0 0 26.91868,-4.70796 6.1136088,25.533308 74.945964 0 0 4.15497,-1.50859 l 1.05396,4.09859 -18.03009,6.03406 a 6.1136088,25.533308 74.945964 0 0 18.96398,-2.40317 l 0.3187,1.23942 -24.50496,8.20131 a 6.1136088,25.533308 74.945964 0 0 25.51884,-4.25884 l 0.17072,0.66426 -29.89452,10.00503 a 6.1136088,25.533308 74.945964 0 0 26.9187,-4.70796 6.1136088,25.533308 74.945964 0 0 3.96875,-1.43718 l 0.629,2.44637 -22.47648,7.52231 a 6.1136088,25.533308 74.945964 0 0 23.47689,-3.63224 l 0.25828,1.00405 30.3644,-9.38876 -5.2242,-20.31407 8.234452,-2.54594 20.535158,15.57983 32.422788,-10.0252 -25.325004,-19.08283 c 4.836566,-4.23663 8.158972,-8.96044 9.967127,-14.17122 1.808162,-5.21077 1.970146,-10.70162 0.485951,-16.47265 -1.583093,-6.15577 -4.640992,-11.02492 -9.173575,-14.6074 -4.532592,-3.58246 -10.203407,-5.64995 -17.012475,-6.20269 -5.957934,-0.48365 -12.494528,0.22905 -19.609422,2.13825 z m 1.15036,22.26996 c 3.76476,-1.05698 6.816278,-1.09042 9.154368,-0.10011 2.47417,0.97936 4.097336,2.96953 4.869108,5.97046 0.771818,3.00092 0.345728,5.66594 -1.277522,7.99531 -1.643021,2.2524 -4.522969,4.01508 -8.640184,5.28812 l -11.06516,3.42131 -4.86792,-18.92906 11.06487,-3.42122 c 0.25732,-0.0795 0.51144,-0.15439 0.76244,-0.2248 z"
       id="text1769"
       inkscape:connector-curvature="0" />
    <path
       id="circle1666"
       style="opacity:0.505;fill:#0066ff;fill-opacity:1;fill-rule:nonzero;stroke:none;stroke-width:0.98998851;stroke-linecap:butt;stroke-linejoin:round;stroke-miterlimit:4;stroke-dasharray:none;stroke-opacity:0.94930875"
       sodipodi:type="arc"
       sodipodi:cx="-102.39375"
       sodipodi:cy="-223.7"
       sodipodi:rx="61.533333"
       sodipodi:ry="61.533382"
       sodipodi:start="0.54521122"
       sodipodi:end="0.41375463"
       d="m -49.78166,-191.78886 a 61.533333,61.533382 0 0 1 -82.77723,21.72113 61.533333,61.533382 0 0 1 -24.4293,-82.01888 61.533333,61.533382 0 0 1 81.171818,-27.11112 61.533333,61.533382 0 0 1 29.76363,80.23723"
       sodipodi:open="true" />
    <path
       id="circle1620"
       style="opacity:0.51000001;fill:none;fill-opacity:1;fill-rule:nonzero;stroke:#2a7fff;stroke-width:15.3221283;stroke-linecap:butt;stroke-linejoin:round;stroke-miterlimit:4;stroke-dasharray:none;stroke-opacity:0.94930875"
       sodipodi:type="arc"
       sodipodi:cx="-102.39375"
       sodipodi:cy="-223.7"
       sodipodi:rx="84.247169"
       sodipodi:ry="84.247238"
       sodipodi:start="0.2091831"
       sodipodi:end="2.1593106"
       sodipodi:open="true"
       d="m -19.983098,-206.20514 a 84.247169,84.247238 0 0 1 -50.649915,60.53623 84.247169,84.247238 0 0 1 -78.528527,-7.95707" />
    <path
       style="opacity:0.51000001;fill:none;fill-opacity:1;fill-rule:nonzero;stroke:#2a7fff;stroke-width:14.85412693;stroke-linecap:butt;stroke-linejoin:round;stroke-miterlimit:4;stroke-dasharray:none;stroke-opacity:0.94930875"
       id="circle1622"
       sodipodi:type="arc"
       sodipodi:cx="-102.39375"
       sodipodi:cy="-223.7"
       sodipodi:rx="114.82339"
       sodipodi:ry="114.82349"
       sodipodi:start="0"
       sodipodi:end="2.7682669"
       sodipodi:open="true"
       d="m 12.429634,-223.7 a 114.82339,114.82349 0 0 1 -93.514373,112.82889 114.82339,114.82349 0 0 1 -128.223311,-70.95114" />
    <path
       id="circle1624"
       style="opacity:0.884;fill:none;fill-opacity:1;fill-rule:nonzero;stroke:#2a7fff;stroke-width:10.04152584;stroke-linecap:butt;stroke-linejoin:round;stroke-miterlimit:4;stroke-dasharray:none;stroke-opacity:0.94930875"
       sodipodi:type="arc"
       sodipodi:cx="-102.39375"
       sodipodi:cy="-223.7"
       sodipodi:rx="101.67022"
       sodipodi:ry="101.6703"
       sodipodi:start="0.11291856"
       sodipodi:end="2.5353725"
       sodipodi:open="true"
       d="m -1.3710234,-212.24391 a 101.67022,101.6703 0 0 1 -76.1991836,87.13722 101.67022,101.6703 0 0 1 -108.376893,-40.6651" />
    <path
       style="opacity:0.51000001;fill:none;fill-opacity:1;fill-rule:nonzero;stroke:#2a7fff;stroke-width:5.11153936;stroke-linecap:butt;stroke-linejoin:round;stroke-miterlimit:4;stroke-dasharray:none;stroke-opacity:0.94930875"
       id="circle1626"
       sodipodi:type="arc"
       sodipodi:cx="-102.39375"
       sodipodi:cy="-223.7"
       sodipodi:rx="92.875465"
       sodipodi:ry="92.875519"
       sodipodi:start="0.62844265"
       sodipodi:end="2.9726578"
       sodipodi:open="true"
       d="m -27.2627,-169.09981 a 92.875465,92.875519 0 0 1 -96.28232,35.83479 92.875465,92.875519 0 0 1 -70.40206,-74.81959" />
    <path
       id="circle1628"
       style="opacity:0.51000001;fill:none;fill-opacity:1;fill-rule:nonzero;stroke:#2a7fff;stroke-width:2.24835372;stroke-linecap:butt;stroke-linejoin:round;stroke-miterlimit:4;stroke-dasharray:none;stroke-opacity:0.94930875"
       sodipodi:type="arc"
       sodipodi:cx="-102.39375"
       sodipodi:cy="-223.7"
       sodipodi:rx="81.704102"
       sodipodi:ry="81.704163"
       sodipodi:start="0.37941846"
       sodipodi:end="2.8370371"
       sodipodi:open="true"
       d="m -26.500432,-193.43838 a 81.704102,81.704163 0 0 1 -78.950908,51.38531 81.704102,81.704163 0 0 1 -74.88652,-57.14636" />
    <path
       d="M 184.80441,241.19484 A 84.247169,84.247238 0 0 1 134.15449,301.73107 84.247169,84.247238 0 0 1 55.625971,293.774"
       sodipodi:open="true"
       sodipodi:end="2.1593106"
       sodipodi:start="0.2091831"
       sodipodi:ry="84.247238"
       sodipodi:rx="84.247169"
       sodipodi:cy="223.69998"
       sodipodi:cx="102.39375"
       sodipodi:type="arc"
       style="opacity:0.51000001;fill:none;fill-opacity:1;fill-rule:nonzero;stroke:#2a7fff;stroke-width:15.3221283;stroke-linecap:butt;stroke-linejoin:round;stroke-miterlimit:4;stroke-dasharray:none;stroke-opacity:0.94930875"
       id="path1642"
       transform="scale(-1)" />
    <path
       d="M 217.21712,223.69997 A 114.82339,114.82349 0 0 1 123.70275,336.52886 114.82339,114.82349 0 0 1 -4.5205625,265.57771"
       sodipodi:open="true"
       sodipodi:end="2.7682669"
       sodipodi:start="0"
       sodipodi:ry="114.82349"
       sodipodi:rx="114.82339"
       sodipodi:cy="223.69997"
       sodipodi:cx="102.39374"
       sodipodi:type="arc"
       id="path1644"
       style="opacity:0.51000001;fill:none;fill-opacity:1;fill-rule:nonzero;stroke:#2a7fff;stroke-width:14.85412693;stroke-linecap:butt;stroke-linejoin:round;stroke-miterlimit:4;stroke-dasharray:none;stroke-opacity:0.94930875"
       transform="scale(-1)" />
    <path
       d="M 203.41647,235.15606 A 101.67022,101.6703 0 0 1 127.21728,322.29329 101.67022,101.6703 0 0 1 18.840388,281.62819"
       sodipodi:open="true"
       sodipodi:end="2.5353725"
       sodipodi:start="0.11291856"
       sodipodi:ry="101.6703"
       sodipodi:rx="101.67022"
       sodipodi:cy="223.69998"
       sodipodi:cx="102.39374"
       sodipodi:type="arc"
       style="opacity:0.9;fill:none;fill-opacity:1;fill-rule:nonzero;stroke:#2a7fff;stroke-width:10.04152584;stroke-linecap:butt;stroke-linejoin:round;stroke-miterlimit:4;stroke-dasharray:none;stroke-opacity:0.94930875"
       id="path1646"
       transform="scale(-1)" />
    <path
       d="M 177.52481,278.30018 A 92.875465,92.875519 0 0 1 81.24249,314.13498 92.875465,92.875519 0 0 1 10.840425,239.31539"
       sodipodi:open="true"
       sodipodi:end="2.9726578"
       sodipodi:start="0.62844265"
       sodipodi:ry="92.875519"
       sodipodi:rx="92.875465"
       sodipodi:cy="223.7"
       sodipodi:cx="102.39375"
       sodipodi:type="arc"
       id="path1648"
       style="opacity:0.51000001;fill:none;fill-opacity:1;fill-rule:nonzero;stroke:#2a7fff;stroke-width:5.11153936;stroke-linecap:butt;stroke-linejoin:round;stroke-miterlimit:4;stroke-dasharray:none;stroke-opacity:0.94930875"
       transform="scale(-1)" />
    <path
       d="M 178.28707,253.96158 A 81.704102,81.704163 0 0 1 99.336164,305.3469 81.704102,81.704163 0 0 1 24.449648,248.20053"
       sodipodi:open="true"
       sodipodi:end="2.8370371"
       sodipodi:start="0.37941846"
       sodipodi:ry="81.704163"
       sodipodi:rx="81.704102"
       sodipodi:cy="223.69997"
       sodipodi:cx="102.39375"
       sodipodi:type="arc"
       style="opacity:0.51000001;fill:none;fill-opacity:1;fill-rule:nonzero;stroke:#2a7fff;stroke-width:2.24835372;stroke-linecap:butt;stroke-linejoin:round;stroke-miterlimit:4;stroke-dasharray:none;stroke-opacity:0.94930875"
       id="path1650"
       transform="scale(-1)" />
    <path
       d="m 97.048907,-212.63165 a 203.88722,53.300011 0 0 1 -122.57825,38.29896 203.88722,53.300011 0 0 1 -190.047477,-5.03414"
       sodipodi:open="true"
       sodipodi:end="2.1593106"
       sodipodi:start="0.2091831"
       sodipodi:ry="53.300011"
       sodipodi:rx="203.88722"
       sodipodi:cy="-223.69998"
       sodipodi:cx="-102.39375"
       sodipodi:type="arc"
       style="opacity:0.51000001;fill:none;fill-opacity:1;fill-rule:nonzero;stroke:#2a7fff;stroke-width:17.90922546;stroke-linecap:butt;stroke-linejoin:round;stroke-miterlimit:4;stroke-dasharray:none;stroke-opacity:0.94930875"
       id="path1681" />
    <path
       d="m 175.49123,-223.69998 a 277.88498,72.64444 0 0 1 -226.314872,71.38253 277.88498,72.64444 0 0 1 -310.314248,-44.88808"
       sodipodi:open="true"
       sodipodi:end="2.7682669"
       sodipodi:start="0"
       sodipodi:ry="72.64444"
       sodipodi:rx="277.88498"
       sodipodi:cy="-223.69998"
       sodipodi:cx="-102.39375"
       sodipodi:type="arc"
       id="path1683"
       style="opacity:0.51000001;fill:none;fill-opacity:1;fill-rule:nonzero;stroke:#2a7fff;stroke-width:17.3622036;stroke-linecap:butt;stroke-linejoin:round;stroke-miterlimit:4;stroke-dasharray:none;stroke-opacity:0.94930875" />
    <path
       d="m 142.09212,-216.45216 a 246.05287,64.322914 0 0 1 -184.410221,55.1284 246.05287,64.322914 0 0 1 -262.283749,-25.72726"
       sodipodi:open="true"
       sodipodi:end="2.5353725"
       sodipodi:start="0.11291856"
       sodipodi:ry="64.322914"
       sodipodi:rx="246.05287"
       sodipodi:cy="-223.69998"
       sodipodi:cx="-102.39375"
       sodipodi:type="arc"
       style="opacity:0.723;fill:none;fill-opacity:1;fill-rule:nonzero;stroke:#2a7fff;stroke-width:11.73700905;stroke-linecap:butt;stroke-linejoin:round;stroke-miterlimit:4;stroke-dasharray:none;stroke-opacity:0.94930875"
       id="path1685" />
    <path
       d="m 79.431453,-189.15653 a 224.76859,58.758801 0 0 1 -233.013533,22.67131 224.76859,58.758801 0 0 1 -170.38055,-47.3355"
       sodipodi:open="true"
       sodipodi:end="2.9726578"
       sodipodi:start="0.62844265"
       sodipodi:ry="58.758801"
       sodipodi:rx="224.76859"
       sodipodi:cy="-223.69998"
       sodipodi:cx="-102.39375"
       sodipodi:type="arc"
       id="path1687"
       style="opacity:0.51000001;fill:none;fill-opacity:1;fill-rule:nonzero;stroke:#2a7fff;stroke-width:5.97460747;stroke-linecap:butt;stroke-linejoin:round;stroke-miterlimit:4;stroke-dasharray:none;stroke-opacity:0.94930875" />
    <path
       d="m 81.276245,-204.55461 a 197.73271,51.691105 0 0 1 -191.069695,32.50952 197.73271,51.691105 0 0 1 -181.23342,-36.15432"
       sodipodi:open="true"
       sodipodi:end="2.8370371"
       sodipodi:start="0.37941846"
       sodipodi:ry="51.691105"
       sodipodi:rx="197.73271"
       sodipodi:cy="-223.69998"
       sodipodi:cx="-102.39375"
       sodipodi:type="arc"
       style="opacity:0.723;fill:none;fill-opacity:1;fill-rule:nonzero;stroke:#2a7fff;stroke-width:2.62798166;stroke-linecap:butt;stroke-linejoin:round;stroke-miterlimit:4;stroke-dasharray:none;stroke-opacity:0.94930875"
       id="path1689" />
    <path
       transform="scale(-1)"
       id="path1691"
       style="opacity:0.51000001;fill:none;fill-opacity:1;fill-rule:nonzero;stroke:#2a7fff;stroke-width:17.90922546;stroke-linecap:butt;stroke-linejoin:round;stroke-miterlimit:4;stroke-dasharray:none;stroke-opacity:0.94930875"
       sodipodi:type="arc"
       sodipodi:cx="102.39375"
       sodipodi:cy="223.69998"
       sodipodi:rx="203.88722"
       sodipodi:ry="53.300011"
       sodipodi:start="0.2091831"
       sodipodi:end="2.1593106"
       sodipodi:open="true"
       d="M 301.83641,234.76831 A 203.88722,53.300011 0 0 1 179.25816,273.06727 203.88722,53.300011 0 0 1 -10.789316,268.03314" />
    <path
       transform="scale(-1)"
       style="opacity:0.51000001;fill:none;fill-opacity:1;fill-rule:nonzero;stroke:#2a7fff;stroke-width:17.3622036;stroke-linecap:butt;stroke-linejoin:round;stroke-miterlimit:4;stroke-dasharray:none;stroke-opacity:0.94930875"
       id="path1693"
       sodipodi:type="arc"
       sodipodi:cx="102.39375"
       sodipodi:cy="223.69998"
       sodipodi:rx="277.88498"
       sodipodi:ry="72.64444"
       sodipodi:start="0"
       sodipodi:end="2.7682669"
       sodipodi:open="true"
       d="M 380.27873,223.69998 A 277.88498,72.64444 0 0 1 153.96386,295.08252 277.88498,72.64444 0 0 1 -156.35038,250.19443" />
    <path
       transform="scale(-1)"
       id="path1695"
       style="opacity:0.723;fill:none;fill-opacity:1;fill-rule:nonzero;stroke:#2a7fff;stroke-width:11.73700905;stroke-linecap:butt;stroke-linejoin:round;stroke-miterlimit:4;stroke-dasharray:none;stroke-opacity:0.94930875"
       sodipodi:type="arc"
       sodipodi:cx="102.39375"
       sodipodi:cy="223.69998"
       sodipodi:rx="246.05287"
       sodipodi:ry="64.322914"
       sodipodi:start="0.11291856"
       sodipodi:end="2.5353725"
       sodipodi:open="true"
       d="M 346.87963,230.94781 A 246.05287,64.322914 0 0 1 162.46941,286.0762 246.05287,64.322914 0 0 1 -99.814344,260.34894" />
    <path
       transform="scale(-1)"
       style="opacity:0.51000001;fill:none;fill-opacity:1;fill-rule:nonzero;stroke:#2a7fff;stroke-width:5.97460747;stroke-linecap:butt;stroke-linejoin:round;stroke-miterlimit:4;stroke-dasharray:none;stroke-opacity:0.94930875"
       id="path1697"
       sodipodi:type="arc"
       sodipodi:cx="102.39375"
       sodipodi:cy="223.69998"
       sodipodi:rx="224.76859"
       sodipodi:ry="58.758801"
       sodipodi:start="0.62844265"
       sodipodi:end="2.9726578"
       sodipodi:open="true"
       d="M 284.21896,258.24344 A 224.76859,58.758801 0 0 1 51.205428,280.91475 224.76859,58.758801 0 0 1 -119.17512,233.57924" />
    <path
       transform="scale(-1)"
       id="path1699"
       style="opacity:0.723;fill:none;fill-opacity:1;fill-rule:nonzero;stroke:#2a7fff;stroke-width:2.62798166;stroke-linecap:butt;stroke-linejoin:round;stroke-miterlimit:4;stroke-dasharray:none;stroke-opacity:0.94930875"
       sodipodi:type="arc"
       sodipodi:cx="102.39375"
       sodipodi:cy="223.69998"
       sodipodi:rx="197.73271"
       sodipodi:ry="51.691105"
       sodipodi:start="0.37941846"
       sodipodi:end="2.8370371"
       sodipodi:open="true"
       d="M 286.06375,242.84535 A 197.73271,51.691105 0 0 1 94.994059,275.35488 197.73271,51.691105 0 0 1 -86.239363,239.20055" />
    <text
       xml:space="preserve"
       style="font-style:normal;font-variant:normal;font-weight:normal;font-stretch:normal;font-size:10.58333302px;line-height:1.25;font-family:'Wide Latin';-inkscape-font-specification:'Wide Latin';letter-spacing:2.64583325px;word-spacing:0px;fill:#000000;fill-opacity:1;stroke:none;stroke-width:0.26458332"
       x="-409.57144"
       y="-439.10651"
       id="text1753"><tspan
         sodipodi:role="line"
         id="tspan1751"
         x="-409.57144"
         y="-429.74945"
         style="stroke-width:0.26458332" /></text>
    <flowRoot
       xml:space="preserve"
       id="flowRoot1759"
       style="fill:black;fill-opacity:1;stroke:none;font-family:'Wide Latin';font-style:normal;font-weight:normal;font-size:40px;line-height:1.25;letter-spacing:10px;word-spacing:0px;-inkscape-font-specification:'Wide Latin';font-stretch:normal;font-variant:normal"><flowRegion
         id="flowRegion1761"><rect
           id="rect1763"
           width="352.94116"
           height="188.23529"
           x="-1702.9412"
           y="-1862.7744" /></flowRegion><flowPara
         id="flowPara1765"></flowPara></flowRoot>  </g>
</svg>
